<svg width="272" height="271" viewBox="0 0 272 271" fill="none" xmlns="http://www.w3.org/2000/svg">
<g opacity="0.1">
<path fill-rule="evenodd" clip-rule="evenodd" d="M142.127 159.506C141.712 160.475 141.326 161.427 140.967 162.36C141.278 162.48 141.597 162.673 141.922 162.941C142.198 163.004 142.474 163.067 142.75 163.13C145.497 164.121 146.376 168.529 144.753 173.09C143.162 177.514 139.67 180.415 136.922 179.424C136.042 179.15 135.447 178.579 135 177.679C134.641 178.613 134.283 179.546 133.925 180.48C133.981 180.444 134.055 180.437 134.147 180.458C134.402 180.613 134.657 180.768 134.911 180.923C135.3 180.915 135.696 180.981 136.099 181.122C138.793 182.028 139.725 186.52 138.049 190.997C136.511 195.505 132.966 198.322 130.272 197.416C129.338 197.057 128.69 196.401 128.243 195.501C128.151 195.48 128.105 195.47 128.105 195.47C127.768 196.312 127.43 197.153 127.093 197.995C127.22 198.072 127.348 198.15 127.475 198.227C127.976 198.148 128.447 198.208 128.885 198.404C131.633 199.395 132.511 203.803 130.973 208.311C129.297 212.788 125.805 215.689 123.058 214.698C122.563 214.537 122.099 214.238 121.667 213.8C121.519 213.815 121.363 213.755 121.2 213.621C120.96 213.615 120.759 213.544 120.596 213.41C119.927 214.853 119.259 216.296 118.591 217.739C118.775 217.781 119.004 217.834 119.28 217.897C122.632 219.098 123.704 224.566 121.669 229.976C119.688 235.471 115.487 238.935 112.135 237.734C111.548 237.552 111.039 237.242 110.607 236.804L110.554 236.72C109.673 236.446 108.941 235.843 108.547 235.028L108.462 235.081C104.149 240.623 99.9678 243.367 96.0523 241.457C86.7148 236.929 91.7918 221.697 99.4292 204.148L97.5956 204.237C95.2953 209.224 89.8319 212.182 84.2543 211.197C80.6382 210.516 77.7292 208.328 75.9211 205.449C75.8502 205.336 75.7793 205.223 75.7084 205.11C75.1412 204.207 74.7433 203.197 74.5148 202.081C74.4294 201.82 74.4006 201.523 74.4281 201.191C74.1353 199.721 74.111 198.241 74.3552 196.749C74.4182 196.474 74.4707 196.244 74.5127 196.06C74.5127 196.06 74.495 196.032 74.4595 195.975C74.8475 193.961 75.4363 191.701 76.3422 189.007L74.9951 188.554C73.2463 193.667 71.2191 199.152 68.9136 205.008C57.0519 235.009 56.3494 263.79 79.2767 273.6L81.9552 272.036C76.2042 269.271 72.7988 262.907 74.004 256.365L75.8927 257.304C75.8429 257.099 75.8389 256.905 75.8809 256.721C77.1491 249.902 83.6268 245.363 90.3074 246.599C94.0613 247.312 97.1298 249.754 98.8217 252.825L98.8749 252.909C102.784 251.99 106.747 251.154 109.364 250.81C113.932 250.185 119.114 254.489 122.513 258.022C123.876 255.867 125.101 253.681 126.294 251.633C126.569 251.067 126.843 250.501 127.118 249.935C128.902 246.571 130.347 243.42 131.677 240.459C133.311 236.481 137.888 225.341 143.867 210.605C143.719 210.62 143.553 210.606 143.369 210.564C142.745 211.074 142.13 211.224 141.579 211.098C139.67 210.879 139.229 207.732 140.356 204.072C141.62 200.445 144.052 197.736 145.876 198.008C146.06 198.05 146.261 198.12 146.481 198.219C146.798 198.098 147.095 198.069 147.371 198.132C147.869 198.174 148.304 198.491 148.57 198.914C154.465 184.231 161.224 167.352 167.951 150.611C167.23 150.592 166.541 150.434 165.999 149.948C165.225 149.843 164.483 149.601 163.888 149.03C161.966 147.285 162.042 143.458 164.093 140.518C166.005 137.546 169.194 136.606 171.116 138.351C171.314 138.542 171.484 138.75 171.626 138.975C171.937 139.095 172.21 139.278 172.443 139.525C176.103 130.497 179.561 121.713 182.862 113.618C181.94 113.842 180.975 113.622 180.274 112.881L180.242 113.019C179.578 112.964 178.984 112.707 178.46 112.249C176.728 110.62 176.795 107.154 178.645 104.458C180.356 101.73 183.237 100.865 185.022 102.579C185.185 102.712 185.365 102.875 185.563 103.065L185.479 103.118C185.846 103.202 186.165 103.396 186.434 103.699C186.561 103.777 186.661 103.872 186.731 103.985C193.333 87.7952 198.469 75.4778 200.305 71.2551C207.849 55.0636 217.939 44.2409 229.778 48.6149C241.479 52.9574 242.616 69.2472 252.103 74.3894C258.12 77.5779 271.14 84.398 280.171 89.0006L283.265 83.3972C279.901 81.6129 275.497 79.3008 269.427 76.0277C247.959 64.5932 252.758 48.3544 231.674 38.0957C210.506 27.8902 194.147 41.7047 184.861 61.7053C180.377 71.488 171.926 90.3738 163.202 110.14C163.442 110.147 163.672 110.199 163.891 110.298C165.811 111.099 166.01 114.989 164.354 118.745C162.751 122.585 159.799 125.03 157.825 124.143C157.642 124.101 157.45 123.985 157.252 123.795C157.013 124.417 156.774 125.04 156.535 125.662C156.535 125.662 156.553 125.69 156.589 125.747C156.829 125.753 157.059 125.806 157.278 125.904C159.421 126.684 159.864 130.775 158.336 134.923C156.723 139.124 153.761 141.928 151.618 141.148C151.087 140.93 150.645 140.539 150.29 139.974C149.538 141.785 148.796 143.55 148.065 145.269C146.007 144.436 143.076 147.102 141.579 151.112C140.315 154.74 140.524 158.27 142.127 159.506ZM142.456 159.654C141.7 157.885 141.916 155.034 142.992 152.233C144.372 148.414 146.911 145.875 148.935 145.903C149.176 145.909 149.406 145.962 149.625 146.06C151.768 146.84 152.211 150.931 150.683 155.079C149.07 159.28 146.108 162.084 143.965 161.304C143.307 161.009 142.85 160.469 142.456 159.654ZM74.3069 239.171C70.1925 238.448 67.4174 234.405 68.1401 230.29C68.9475 226.123 72.9909 223.348 77.1052 224.07C81.2727 224.878 83.9947 228.836 83.2405 233.089C82.5178 237.203 78.4744 239.978 74.3069 239.171Z" fill="#FF9C00"/>
<path d="M81.9551 272.036L79.2766 273.599C80.373 274.092 81.5081 274.52 82.6819 274.885C96.2165 279.139 106.257 275.196 114.023 268.194C114.516 267.727 114.982 267.277 115.419 266.845C117.333 264.817 119.194 262.703 120.811 260.389C120.945 260.226 121.079 260.063 121.213 259.901C117.952 256.399 113.173 252.551 109.581 253.035C107.186 253.358 103.531 254.118 99.7907 254.932C100.431 256.892 100.541 258.948 100.175 261.185C99.6924 263.614 98.5521 265.747 97.008 267.425L98.8436 268.279C95.661 272.049 90.556 274.074 85.4766 273.131C84.2253 272.893 83.0515 272.528 81.9551 272.036Z" fill="#FF9C00"/>
<path d="M74.0039 256.364C72.7987 262.907 76.2042 269.271 81.9552 272.036C83.0516 272.528 84.2254 272.893 85.4767 273.131C90.5561 274.074 95.661 272.049 98.8437 268.279L97.0081 267.425C94.2902 270.43 90.0853 272.008 85.8332 271.254C79.2904 270.049 74.9101 263.825 75.8927 257.304L74.0039 256.364Z" fill="#FF9C00"/>
<path fill-rule="evenodd" clip-rule="evenodd" d="M75.8926 257.304C74.91 263.825 79.2903 270.048 85.8331 271.254C90.0853 272.008 94.2902 270.43 97.008 267.425L93.8568 265.979C94.0537 265.541 94.187 265.063 94.2565 264.547C94.8119 261.483 93.3957 258.475 90.9121 256.965C90.148 256.5 89.3063 256.162 88.3872 255.952C87.4471 255.834 86.5779 255.829 85.7796 255.937C85.5747 255.987 85.4441 256.029 85.3876 256.065C83.4063 256.482 81.5648 257.875 80.6254 259.764L75.8926 257.304ZM86.2387 267.575C83.8635 267.177 82.2898 264.859 82.7723 262.43C83.1701 260.055 85.4881 258.481 87.8634 258.879C90.2918 259.362 91.8123 261.595 91.4145 263.97C90.9321 266.399 88.7518 268.004 86.2387 267.575Z" fill="#CC8538"/>
<path d="M75.8808 256.721C75.8388 256.905 75.8428 257.099 75.8927 257.304L80.6254 259.764C81.5649 257.875 83.4063 256.482 85.3876 256.065C85.4441 256.029 85.5748 255.987 85.7796 255.937C87.2311 255.616 93.0155 254.109 98.8748 252.909L98.8216 252.825C97.1297 249.754 94.0612 247.312 90.3073 246.599C83.6267 245.362 77.149 249.902 75.8808 256.721Z" fill="#CC8538"/>
<path d="M68.1401 230.29C67.4173 234.404 70.1925 238.448 74.3068 239.171C78.4743 239.978 82.5177 237.203 83.2404 233.088C83.9946 228.836 81.2726 224.878 77.1051 224.07C72.9908 223.348 68.9475 226.123 68.1401 230.29Z" fill="#CC8538"/>
<path d="M82.6876 262.483C82.2898 264.859 83.8635 267.177 86.2388 267.575C88.6672 268.057 90.9853 266.483 91.4677 264.055C91.8123 261.595 90.2918 259.362 87.8634 258.879C85.4882 258.481 83.1701 260.055 82.6876 262.483Z" fill="#E5AB57"/>
<path d="M99.7908 254.932C103.531 254.118 107.186 253.358 109.581 253.035C113.174 252.55 117.952 256.399 121.213 259.9C121.559 259.447 121.858 258.984 122.111 258.51C122.245 258.347 122.379 258.184 122.513 258.022C119.114 254.488 113.932 250.185 109.364 250.809C106.747 251.154 102.784 251.989 98.8749 252.909C93.0156 254.109 87.2312 255.616 85.7797 255.937C86.578 255.829 87.4472 255.834 88.3873 255.952C89.3064 256.162 90.1481 256.5 90.9122 256.965C93.4549 256.313 96.6652 255.596 99.7908 254.932Z" fill="#E5AB57"/>
<path d="M93.8569 265.979L97.0081 267.425C98.5522 265.747 99.6925 263.614 100.175 261.185C100.541 258.948 100.431 256.892 99.7907 254.932C96.6651 255.596 93.4548 256.313 90.9122 256.965C93.3958 258.475 94.812 261.483 94.2566 264.547C94.187 265.063 94.0538 265.541 93.8569 265.979Z" fill="#CC8538"/>
<path fill-rule="evenodd" clip-rule="evenodd" d="M74.5148 202.081C74.7997 203.161 75.1976 204.171 75.7084 205.11C75.7793 205.223 75.8502 205.336 75.9211 205.449C76.7188 206.719 77.7705 207.83 79.098 209.004L87.2613 194.549C87.2613 194.549 84.7737 191.152 83.8952 186.744C79.4028 187.676 75.6155 191.235 74.4595 195.975C74.495 196.032 74.5127 196.06 74.5127 196.06C74.2094 198.022 74.1917 199.686 74.4281 201.191C74.4006 201.523 74.4294 201.819 74.5148 202.081ZM78.9954 200.566C76.567 200.084 74.9933 197.766 75.3911 195.39C75.8736 192.962 78.1916 191.388 80.62 191.871C82.9953 192.268 84.569 194.587 84.0865 197.015C83.6887 199.39 81.3706 200.964 78.9954 200.566Z" fill="#E5AB57"/>
<path d="M79.098 209.003C77.7705 207.83 76.7188 206.719 75.9211 205.448C77.7292 208.328 80.6382 210.516 84.2542 211.197C89.8319 212.182 95.2953 209.224 97.5955 204.237C98.0669 203.232 98.4004 202.196 98.596 201.129C99.8642 194.31 95.4622 187.864 88.7816 186.628C87.0425 186.303 85.4314 186.37 83.8952 186.744C84.7737 191.152 87.2613 194.549 87.2613 194.549L79.098 209.003Z" fill="#E5AB57"/>
<path d="M75.391 195.39C74.9933 197.765 76.5669 200.084 78.9954 200.566C81.3706 200.964 83.6887 199.39 84.0865 197.015C84.5689 194.586 82.9952 192.268 80.62 191.871C78.1916 191.388 75.8735 192.962 75.391 195.39Z" fill="#E5AB57"/>
<path d="M74.995 188.554L76.3421 189.007C77.6065 185.379 79.4203 180.934 81.953 175.565C85.4034 168.085 88.0326 163.246 90.4747 160.177C90.5312 160.142 90.5594 160.124 90.5594 160.124C93.2221 156.09 98.0828 153.865 102.94 154.83C103.18 154.836 103.41 154.889 103.629 154.987C103.777 154.973 103.897 154.976 103.989 154.997L103.905 155.05C110.077 156.606 114.012 162.873 112.839 169.278C112.748 169.886 112.622 170.437 112.461 170.932L113.532 171.322C123.481 144.292 120.038 125.082 116.31 111.246C115.102 106.691 115.063 103.055 115.502 100.181C116.496 94.2432 119.894 91.7556 119.894 91.7556C117.66 88.1987 102.609 93.7531 86.1799 104.07C69.7505 114.386 58.2626 125.615 60.4429 129.087C64.7009 127.594 68.3682 127.417 71.5076 128.279C77.0656 129.985 80.7014 135.023 82.2851 142.058C84.3178 150.936 82.4845 166.257 74.995 188.554Z" fill="#FF9C00"/>
<path d="M76.3422 189.007C75.4363 191.701 74.8475 193.96 74.4595 195.975C75.6155 191.235 79.4028 187.676 83.8952 186.744C82.8789 182.305 83.4716 176.855 89.77 172.782C88.5567 170.474 88.1056 167.687 88.5979 164.898C88.9229 163.159 89.5767 161.567 90.4748 160.177C88.0326 163.246 85.4035 168.085 81.9531 175.565C79.4204 180.934 77.6066 185.379 76.3422 189.007Z" fill="#FF9C00"/>
<path d="M114.023 268.194L120.776 273.872L134.539 255.548L127.118 249.935C126.843 250.501 126.569 251.066 126.294 251.632L126.708 251.727C129.136 252.209 130.71 254.527 130.228 256.956C129.83 259.331 127.565 260.989 125.137 260.507C123.811 260.277 122.749 259.526 122.111 258.51C121.858 258.984 121.559 259.447 121.213 259.9C121.079 260.063 120.945 260.226 120.811 260.389L121.003 260.505C122.923 261.307 124.061 263.308 123.642 265.46C123.244 267.836 120.979 269.494 118.551 269.011C117.087 268.75 115.973 267.915 115.419 266.845C114.982 267.277 114.516 267.727 114.023 268.194Z" fill="#67410C"/>
<path d="M60.4429 129.087C61.4749 130.919 65.6503 130.422 71.5076 128.279C68.3681 127.417 64.7009 127.594 60.4429 129.087Z" fill="#542700"/>
<path d="M83.8951 186.744C85.4313 186.37 87.0424 186.303 88.7815 186.628C95.4621 187.864 99.8641 194.31 98.5959 201.129C98.4003 202.196 98.0668 203.232 97.5955 204.237L99.4291 204.148C103.839 194.058 108.989 183.267 112.9 173.136C113.139 172.514 113.349 171.909 113.532 171.322L112.461 170.932C110.607 176.819 104.679 180.542 98.4122 179.399C94.5205 178.655 91.3987 176.128 89.7699 172.782C83.4715 176.855 82.8788 182.305 83.8951 186.744Z" fill="#FF9C00"/>
<path d="M108.346 225.117C107.018 229.021 107.079 232.879 108.462 235.081L108.547 235.028C108.941 235.843 109.673 236.446 110.554 236.72L110.607 236.804C113.715 237.805 117.746 234.447 119.664 229.227C121.498 224.061 120.608 219.071 117.732 217.688C117.64 217.667 117.548 217.646 117.456 217.625C114.327 216.402 110.211 219.813 108.346 225.117Z" fill="#FFAA00"/>
<path d="M110.607 236.804C111.039 237.242 111.548 237.551 112.135 237.734C115.487 238.935 119.688 235.471 121.669 229.976C123.704 224.566 122.632 219.098 119.28 217.897C119.004 217.834 118.775 217.781 118.591 217.739C118.315 217.676 118.029 217.659 117.732 217.688C120.608 219.071 121.498 224.061 119.665 229.227C117.746 234.447 113.715 237.805 110.607 236.804Z" fill="#874D00"/>
<path fill-rule="evenodd" clip-rule="evenodd" d="M88.5979 164.898C88.1056 167.687 88.5567 170.474 89.7699 172.782C91.6331 171.612 93.9945 170.483 97.0984 169.597L103.905 155.05C103.813 155.029 103.721 155.008 103.629 154.987C98.3389 154.648 94.841 154.719 90.5594 160.124C90.5594 160.124 90.5312 160.142 90.4747 160.177C89.5767 161.568 88.9228 163.159 88.5979 164.898ZM92.8659 168.122C90.4375 167.64 88.917 165.406 89.3148 163.031C89.7972 160.603 92.0621 158.944 94.4905 159.427C96.8658 159.824 98.4395 162.142 98.0417 164.518C97.5592 166.946 95.2411 168.52 92.8659 168.122Z" fill="#E5AB57"/>
<path d="M97.0984 169.597C93.9945 170.483 91.6331 171.612 89.7699 172.782C91.3988 176.128 94.5205 178.655 98.4123 179.399C104.679 180.541 110.607 176.819 112.461 170.932C112.622 170.437 112.748 169.885 112.839 169.277C114.012 162.873 110.077 156.606 103.905 155.05L97.0984 169.597Z" fill="#E5AB57"/>
<path d="M89.3148 163.031C88.917 165.406 90.4375 167.64 92.8659 168.122C95.2411 168.52 97.5592 166.946 98.0417 164.518C98.4395 162.143 96.8658 159.824 94.4905 159.427C92.0621 158.944 89.7972 160.603 89.3148 163.031Z" fill="#E5AB57"/>
<path d="M119.378 204.138C117.882 208.148 118.441 212.047 120.596 213.41C120.758 213.544 120.96 213.615 121.2 213.621C121.363 213.755 121.519 213.815 121.667 213.8C124.265 214.176 127.249 211.594 128.692 207.5C130.189 203.49 129.576 199.505 127.475 198.227C127.347 198.15 127.22 198.072 127.093 197.995C127.001 197.974 126.937 197.935 126.902 197.879C124.207 196.973 120.885 199.768 119.378 204.138Z" fill="#FFAA00"/>
<path d="M121.667 213.8C122.099 214.237 122.563 214.537 123.058 214.698C125.805 215.689 129.297 212.788 130.973 208.311C132.511 203.803 131.632 199.395 128.885 198.404C128.446 198.207 127.976 198.148 127.475 198.227C129.576 199.505 130.189 203.49 128.692 207.5C127.249 211.594 124.265 214.176 121.667 213.8Z" fill="#874D00"/>
<path d="M128.243 195.501C128.37 195.579 128.498 195.656 128.625 195.734C131.181 196.608 134.472 193.951 135.947 189.719C137.296 186.038 136.843 182.307 134.911 180.923C134.657 180.768 134.402 180.613 134.147 180.458C134.055 180.437 133.981 180.444 133.925 180.48C131.421 179.69 128.268 182.378 126.825 186.473C125.359 190.345 126.004 194.192 128.105 195.47C128.105 195.47 128.151 195.48 128.243 195.501Z" fill="#FFAA00"/>
<path d="M128.625 195.734C128.498 195.656 128.37 195.579 128.243 195.501C128.69 196.401 129.338 197.057 130.272 197.416C132.966 198.322 136.511 195.505 138.049 190.997C139.725 186.52 138.793 182.028 136.099 181.122C135.696 180.981 135.3 180.915 134.911 180.923C136.843 182.307 137.297 186.038 135.947 189.719C134.472 193.951 131.181 196.608 128.625 195.734Z" fill="#874D00"/>
<path d="M140.356 204.072C139.229 207.732 139.67 210.879 141.579 211.098C142.13 211.224 142.745 211.074 143.369 210.564C143.313 210.599 143.267 210.589 143.231 210.532C141.461 210.345 140.988 207.336 142.083 203.814C143.02 200.982 144.828 198.784 146.481 198.219C146.261 198.12 146.06 198.05 145.876 198.008C144.052 197.736 141.62 200.444 140.356 204.072Z" fill="#EBC272"/>
<path d="M143.867 210.605C145.541 210.262 147.466 207.873 148.519 204.85C149.309 202.347 149.315 200.1 148.57 198.914C148.304 198.491 147.869 198.174 147.371 198.132C147.095 198.069 146.798 198.098 146.481 198.219C144.828 198.784 143.02 200.982 142.083 203.814C140.988 207.336 141.461 210.345 143.231 210.532C143.267 210.589 143.313 210.599 143.369 210.564C143.553 210.606 143.719 210.62 143.867 210.605Z" fill="#D07D38"/>
<path d="M133.178 168.196C131.65 172.344 132.506 176.529 134.947 177.594C134.982 177.651 135.046 177.69 135.138 177.711C137.747 178.67 141.123 175.96 142.683 171.674C143.947 168.046 143.516 164.538 141.922 162.941C141.597 162.673 141.278 162.48 140.967 162.36C140.896 162.247 140.815 162.18 140.723 162.159C138.113 161.2 134.653 163.963 133.178 168.196Z" fill="#FFAA00"/>
<path d="M135.138 177.71C135.046 177.689 134.982 177.651 134.947 177.594C134.947 177.594 134.964 177.623 135 177.679C135.447 178.579 136.042 179.15 136.922 179.424C139.67 180.415 143.162 177.513 144.753 173.09C146.376 168.528 145.497 164.121 142.75 163.13C142.474 163.067 142.198 163.004 141.922 162.941C143.516 164.538 143.947 168.046 142.683 171.674C141.123 175.959 137.747 178.67 135.138 177.71Z" fill="#874D00"/>
<path d="M119.894 91.7556C119.894 91.7556 116.496 94.2431 115.502 100.181C119.13 96.3682 120.851 93.2799 119.894 91.7556Z" fill="#542700"/>
<path d="M142.456 159.654C142.85 160.469 143.307 161.009 143.965 161.304C146.108 162.084 149.07 159.28 150.683 155.079C152.211 150.931 151.768 146.84 149.625 146.06C149.405 145.962 149.176 145.909 148.935 145.903C146.911 145.875 144.372 148.414 142.992 152.233C141.916 155.034 141.7 157.885 142.456 159.654Z" fill="#FFAA00"/>
<path d="M156.588 125.746C156.553 125.69 156.535 125.662 156.535 125.662C156.302 125.415 156.029 125.232 155.718 125.112C153.628 124.417 150.782 127.031 149.286 131.041C147.905 134.86 148.22 138.558 150.109 139.498C150.145 139.554 150.208 139.593 150.3 139.614C152.305 140.362 155.236 137.696 156.732 133.686C157.987 130.418 157.853 127.196 156.588 125.746Z" fill="#FFAA00"/>
<path d="M150.29 139.974C150.645 140.539 151.087 140.93 151.618 141.148C153.761 141.928 156.723 139.123 158.336 134.922C159.864 130.775 159.421 126.684 157.278 125.904C157.058 125.806 156.829 125.753 156.588 125.746C157.853 127.196 157.987 130.418 156.732 133.686C155.236 137.696 152.305 140.362 150.3 139.614C150.208 139.593 150.145 139.554 150.109 139.498C150.159 139.703 150.219 139.861 150.29 139.974Z" fill="#B98C14"/>
<path d="M164.093 140.518C162.042 143.458 161.966 147.285 163.888 149.03C164.483 149.601 165.225 149.843 165.999 149.947C165.964 149.891 165.928 149.835 165.893 149.778C163.971 148.033 164.069 144.429 165.865 141.648C167.482 139.334 169.812 138.343 171.626 138.975C171.484 138.749 171.314 138.541 171.116 138.351C169.194 136.606 166.005 137.545 164.093 140.518Z" fill="#EBC272"/>
<path d="M165.865 141.648C164.069 144.429 163.971 148.033 165.893 149.778C165.928 149.835 165.964 149.891 165.999 149.948C166.541 150.434 167.23 150.592 167.951 150.611C169.531 150.682 171.278 149.703 172.577 147.824C174.458 144.99 174.557 141.386 172.634 139.641C172.599 139.585 172.535 139.546 172.443 139.525C172.21 139.278 171.937 139.095 171.626 138.975C169.812 138.343 167.482 139.334 165.865 141.648Z" fill="#D07D38"/>
<path d="M156.226 114.639C154.601 118.257 154.81 121.786 156.646 122.641C156.646 122.641 156.663 122.669 156.699 122.725C158.566 123.442 161.402 121.189 162.942 117.624C164.218 114.579 164.328 111.558 163.202 110.14C163.025 109.858 162.78 109.657 162.469 109.537C160.549 108.736 157.713 110.989 156.226 114.639Z" fill="#FFAA00"/>
<path d="M156.561 122.694C156.753 123.124 156.983 123.491 157.252 123.795C157.45 123.985 157.641 124.101 157.825 124.143C159.799 125.03 162.751 122.585 164.354 118.745C166.01 114.989 165.811 111.099 163.891 110.298C163.672 110.199 163.442 110.147 163.202 110.14C164.328 111.558 164.218 114.579 162.942 117.624C161.402 121.189 158.566 123.442 156.699 122.725C156.663 122.669 156.646 122.641 156.646 122.641L156.561 122.694Z" fill="#B98C14"/>
<path d="M178.645 104.457C176.795 107.154 176.728 110.62 178.46 112.249C178.983 112.707 179.578 112.964 180.242 113.019L180.273 112.881C180.273 112.881 180.245 112.899 180.189 112.934C178.511 111.39 178.546 108.062 180.311 105.419C181.727 103.349 183.887 102.464 185.479 103.118L185.563 103.065C185.365 102.874 185.185 102.712 185.022 102.578C183.237 100.865 180.356 101.73 178.645 104.457Z" fill="#EBC272"/>
<path d="M180.311 105.419C178.546 108.062 178.511 111.39 180.189 112.934C180.245 112.899 180.274 112.881 180.274 112.881C180.975 113.622 181.94 113.842 182.862 113.618C184.144 113.403 185.414 112.605 186.397 111.161C188.045 108.709 188.155 105.688 186.731 103.985C186.66 103.872 186.561 103.776 186.434 103.699C186.165 103.396 185.846 103.202 185.479 103.118C183.887 102.464 181.727 103.349 180.311 105.419Z" fill="#D07D38"/>
<path d="M195.008 63.0089C196.357 59.3279 198.279 55.9954 200.531 52.8107C202.835 49.7106 205.659 46.8745 208.93 44.9384C212.18 42.7797 216.015 41.5526 219.873 41.4915C223.731 41.4303 227.591 42.3126 231.156 43.8527L231.304 43.5237C228.129 40.9122 224.182 39.1398 219.751 38.8523C217.62 38.6554 215.394 38.8721 213.243 39.396C211.093 39.92 209.039 40.9737 207.122 42.059C205.295 43.2854 203.647 44.6739 202.181 46.2246C200.806 47.7963 199.485 49.4527 198.492 51.2568C196.369 54.8335 194.957 58.7902 194.595 62.9144L195.008 63.0089Z" fill="white"/>
<path d="M122.027 258.563C122.316 260.153 123.941 261.612 125.712 261.799C127.673 262.102 129.696 261.187 130.88 259.499C131.344 258.735 131.734 257.663 131.785 256.804C131.833 255.751 131.59 254.801 131.059 253.955C130.271 252.324 128.329 251.3 126.708 251.727L126.676 251.865C128.14 252.127 129.361 253.131 129.851 254.477C130.426 255.768 130.271 257.401 129.436 258.516C128.654 259.715 127.246 260.482 125.804 260.442C124.416 260.488 122.994 259.727 122.196 258.457L122.027 258.563Z" fill="#9B613C"/>
<path d="M115.334 266.899C115.486 268.456 116.973 269.884 118.627 270.262C120.473 270.757 122.517 270.063 123.723 268.598C125.066 267.164 125.4 265.065 124.782 263.328C124.217 261.675 122.613 260.438 121.002 260.505L120.971 260.643C122.233 261.149 123.2 262.313 123.553 263.627C123.821 264.994 123.474 266.51 122.533 267.456C121.645 268.486 120.268 269.114 118.858 268.937C117.501 268.844 116.164 268.031 115.504 266.792L115.334 266.899Z" fill="#9B613C"/>
<path d="M127.171 250.02C128.138 251.184 129.274 252.241 130.411 253.299C130.921 253.923 131.6 254.441 132.142 254.927C132.701 255.442 133.261 255.957 133.82 256.472L133.668 254.914C131.12 257.813 128.762 260.828 126.405 263.844C125.337 265.34 124.185 266.89 123.086 268.525L121.469 270.839L119.906 273.238L121.464 273.087C120.211 272.22 119.043 271.3 117.844 270.518C116.591 269.652 115.391 268.87 114.054 268.057L113.938 268.248L120.745 274.01L120.798 274.095L120.829 273.957C125.452 267.905 130.058 261.825 134.645 255.717L134.677 255.579L134.623 255.495L127.202 249.882L127.171 250.02Z" fill="#9B613C"/>
<path d="M136.508 229.16C138.591 227.025 141.171 223.988 144.244 223.24C146.564 222.609 148.622 223.442 150.944 223.755C151.129 221.041 146.79 219.397 144.407 220.303C140.626 221.615 137.995 225.511 136.263 228.959L136.508 229.16Z" fill="#26180C"/>
<path d="M113.589 253.589C113.399 253.787 113.198 254.031 112.986 254.321C111.147 256.657 109.17 258.962 106.895 260.98C105.731 261.947 104.429 262.883 103.106 263.596C101.782 264.309 100.352 264.853 98.7943 265.004C100.321 264.99 101.888 264.478 103.265 263.85C104.642 263.222 105.997 262.371 107.214 261.488C109.733 259.671 111.986 257.429 113.963 255.125C114.231 254.799 114.488 254.52 114.735 254.286L113.589 253.589Z" fill="#65391F"/>
<path d="M116.173 252.438C119.249 248.499 121.922 244.105 124.425 239.818C127.487 234.352 130.19 228.877 132.838 223.317C135.434 217.672 137.429 213.704 139.749 207.996C139.749 207.996 139.619 206.66 140.566 203.468C141.809 199.617 144.373 194.111 144.529 192.478C144.81 190.294 142.321 185.953 142.321 185.953C140.499 191.702 131.593 216.069 129.358 221.724C127.176 227.463 124.803 233.086 122.239 238.593C120.033 243.166 117.721 247.57 114.889 251.71L116.173 252.438Z" fill="#65391F"/>
<path d="M75.0525 205.758C75.0525 205.758 61.5739 238.074 69.0408 260.307C69.0408 260.307 58.7104 247.429 64.9453 223.322C71.1803 199.215 72.9607 199.042 72.9607 199.042C72.9607 199.042 72.8958 203.452 75.0525 205.758Z" fill="#65391F"/>
<path d="M119.787 91.5862C116.729 93.8611 115.019 97.5323 114.391 101.233C113.763 104.934 114.238 108.887 115.029 112.404C116.613 119.439 117.614 126.486 117.671 133.535C117.786 147.633 114.465 161.526 109.087 174.586C103.868 187.9 97.2172 200.814 92.5616 214.837C91.4135 218.274 90.3717 221.88 89.7435 225.581C89.3871 227.458 89.1685 229.366 89.2257 231.338C89.2828 233.309 89.4778 235.312 90.3405 237.25C91.1185 239.241 92.6272 240.892 94.4313 241.884C95.2487 242.434 96.2354 242.877 97.3699 242.991C98.4196 243.158 99.5324 243.05 100.486 242.688C104.352 241.323 106.603 238.138 108.653 235.197L108.356 234.912C107.288 236.409 106.114 237.736 104.75 238.947C103.385 240.159 101.913 241.201 100.208 241.681C98.5023 242.162 96.71 241.752 95.2132 240.685C93.6848 239.755 92.5582 238.337 91.9398 236.6C90.756 233.21 91.2463 229.478 91.8962 226C92.6307 222.469 93.7789 219.032 94.9802 215.68C100.093 202.196 106.744 189.282 112.216 175.809C117.658 162.473 120.966 147.997 120.31 133.413C119.924 126.216 118.679 118.968 116.788 112.008C115.774 108.512 115.151 104.888 115.526 101.347C115.9 97.806 117.302 94.2097 120 91.925L119.787 91.5862Z" fill="#905600"/>
<path d="M108.972 235.705C107.704 237.446 106.414 238.965 104.826 240.198C103.292 241.516 101.545 242.494 99.7648 242.668C97.9844 242.841 96.1921 242.432 94.4944 241.608C92.8813 240.732 91.67 239.367 90.8822 237.736C89.084 234.497 89.1705 230.309 89.5545 226.408C89.8046 224.361 90.0547 222.315 90.5273 220.247C90.9152 218.232 91.441 216.249 91.9137 214.181L91.7226 214.065C90.1727 217.99 88.9517 222.063 88.229 226.177C87.591 230.238 87.4414 234.701 89.3893 238.556C90.3367 240.441 91.9301 242.038 93.8188 242.977C95.7076 243.917 97.8603 244.336 99.9795 243.95C102.099 243.564 103.909 242.309 105.474 240.854C106.902 239.367 108.171 237.626 109.11 235.737L108.972 235.705Z" fill="#FFCF05"/>
<path d="M67.794 257.194C59.7284 237.58 75.0525 205.758 75.0525 205.758L77.6464 209.325C77.6464 209.325 74.2965 219.221 73.6703 223.866C73.6703 223.866 65.688 228.642 69.2983 236.648C69.2983 236.648 67.7664 254.141 74.004 261.442C74.004 261.442 75.4025 266.113 78.5794 269.668C78.5794 269.668 72.0563 267.742 67.794 257.194Z" fill="white"/>
<path d="M74.6571 224.309C74.974 218.796 79.0054 210.361 79.0901 210.307L77.5933 209.24C77.3609 209.622 72.78 218.875 72.3685 224.801L74.6571 224.309Z" fill="#65391F"/>
<path d="M60.4646 129.31C63.8541 128.126 67.6158 127.535 71.1157 128.407C74.6687 129.364 77.5679 131.913 79.3976 135.015C81.2274 138.117 82.2949 141.697 82.6416 145.258C83.0415 148.904 82.8584 152.561 82.5375 156.187C81.673 163.46 80.1192 170.576 78.0672 177.651C76.0466 184.588 73.6656 191.514 71.1468 198.41L67.2041 208.679C65.9463 212.066 64.8159 215.531 63.8128 219.074C61.9833 226.127 60.6737 233.444 60.5833 240.821C60.4397 248.114 61.7062 255.585 65.5253 262.043C67.355 265.145 69.8308 267.959 72.8777 270.179C75.7867 272.367 79.129 273.928 82.6505 275.023L82.7982 274.694C79.3397 273.324 76.1983 271.518 73.5118 269.308C70.7722 267.014 68.5722 264.262 67.0497 261.085C63.7191 255.029 62.8346 247.791 63.1909 240.837C63.5788 233.745 64.8785 226.788 66.9522 219.937C67.9625 216.468 69.026 213.085 70.3652 209.764L74.3079 199.495C79.3456 185.704 83.8948 171.512 85.0821 156.478C85.2967 152.683 85.3734 148.856 84.8672 145.041C84.7273 144.067 84.5028 143.145 84.225 142.138C84.0464 141.227 83.7759 140.295 83.4135 139.342C82.8266 137.467 81.9856 135.751 80.922 134.058C78.7633 130.808 75.3127 128.133 71.4209 127.389C69.4908 126.948 67.5193 127.005 65.7073 127.316C63.8107 127.681 62.0204 128.214 60.3897 129.002L60.4646 129.31Z" fill="#FFD503"/>
<path d="M89.3861 186.838L92.9153 176.475L91.706 176.053L88.1769 186.417L89.3861 186.838Z" fill="#65391F"/>
<path d="M98.5502 179.431L94.2352 189.107L98.0168 197.95L99.7008 197.247L110.095 175.251L98.5502 179.431Z" fill="#FFD13E"/>
<path d="M110.713 236.974C109.953 238.396 109.023 239.924 108.041 241.368C106.92 242.78 105.746 244.107 104.466 245.266C103.186 246.424 101.662 247.381 100.009 247.946C98.4099 248.596 96.4916 248.738 94.7525 248.413C96.4286 249.014 98.4217 249.179 100.318 248.815C102.077 248.419 103.846 247.662 105.455 246.652C107.149 245.588 108.513 244.377 109.91 243.028C111.306 241.679 112.427 240.267 113.61 238.579L110.713 236.974Z" fill="white"/>
<path d="M80.2831 187.949C80.2831 187.949 81.9513 189.854 87.6543 159.823C93.442 129.738 86.8617 120.763 81.8867 119.046C80.2638 118.53 72.6144 125.341 73.7193 126.536C75.0369 128.07 76.3841 128.523 77.7116 129.697C84.5932 135.767 88.4535 141.727 80.2831 187.949Z" fill="#65391F"/>
<path d="M82.3746 184.511C82.3746 184.511 84.096 186.5 89.8305 156.331C95.5335 126.299 87.9528 120.432 84.4469 116.73C83.2888 115.45 78.8989 119.741 79.4957 121.256C81.6898 126.254 95.9629 128.864 82.3746 184.511Z" fill="white"/>
<path d="M115.608 100.351C116.951 98.9168 118.326 97.3451 119.372 95.6257C119.868 94.7236 120.364 93.8216 120.394 92.7403C120.382 92.1574 120.148 91.5961 119.712 91.279C119.309 90.824 118.757 90.698 118.344 90.6035C116.244 90.2687 114.178 90.7395 112.25 91.2417C110.322 91.744 108.447 92.331 106.594 93.1405C99.1056 96.0713 92.0646 99.9021 85.2896 104.156C78.5678 108.495 72.0271 113.311 66.2723 118.814C64.7913 120.216 63.4481 121.65 62.2113 123.253C61.5772 124.124 61.0277 124.941 60.5314 125.843C60.1729 126.777 59.6452 127.817 60.1139 128.939C60.5295 129.977 61.8235 130.346 62.7669 130.344C63.7635 130.426 64.7915 130.371 65.798 130.093C67.7478 129.814 69.7074 129.174 71.5292 128.502L71.4543 128.195C69.473 128.612 67.5232 128.892 65.6049 129.034C64.5768 129.089 63.6334 129.091 62.8594 128.987C62.4458 128.892 62.1169 128.744 61.8727 128.543C61.7808 128.522 61.7171 128.484 61.6816 128.427L61.7663 128.374C61.8195 128.459 61.7131 128.289 61.7131 128.289C61.7447 128.152 61.9022 127.462 62.4202 126.783C62.8003 126.072 63.4029 125.339 63.9741 124.744C65.2326 123.364 66.6289 122.014 68.0784 120.75C71.0307 118.306 74.0676 115.808 77.3172 113.65C80.4605 111.322 83.7949 109.11 87.0977 107.036C90.3473 104.877 93.7033 102.888 97.1125 100.983C100.606 99.0255 104.069 97.2056 107.553 95.6083C109.332 94.806 111.118 94.0779 112.912 93.4239C114.649 92.8055 116.524 92.2185 117.934 92.3957C118.241 92.3209 118.517 92.3839 118.655 92.4154C118.793 92.4469 118.846 92.5316 118.868 92.7541C119.102 93.3155 118.744 94.249 118.417 95.0447C118.058 95.9783 117.509 96.7956 116.959 97.613C116.473 98.4691 115.942 99.3147 115.364 100.15L115.608 100.351Z" fill="#F4BA00"/>
<path d="M163.393 110.256C167.194 103.146 170.666 95.8883 174.467 88.7783L185.074 67.1213L187.745 61.7839C188.568 60.0862 189.476 58.3352 190.575 56.7005C192.55 53.4527 194.854 50.3527 197.371 47.5914C200.026 44.8616 202.894 42.4705 206.049 40.7255C209.289 38.9272 212.7 37.966 216.314 37.704C223.319 37.2016 230.756 40.2069 236.744 44.4767C239.791 46.6963 242.298 49.3728 244.573 52.4314C246.763 55.5431 248.805 58.9838 251.208 62.4344C253.558 65.8002 256.353 69.1227 259.666 71.7657C262.894 74.4619 266.608 76.6165 270.226 78.2412L281.187 83.2849C284.858 84.9943 288.476 86.6191 292.348 88.0843L292.496 87.7554C285.238 84.2833 278.128 80.4823 271.018 76.6814C267.516 74.8655 264.077 72.774 261.072 70.0561C258.119 67.423 255.569 64.3013 253.357 60.967C251.23 57.5795 249.272 54.0856 246.975 50.8045C244.71 47.3855 241.906 44.4234 238.615 42.0029C235.408 39.5293 231.853 37.6288 228.034 36.2483C224.215 34.8677 220.101 34.145 216.073 34.3125C212.014 34.6179 208.042 35.8134 204.463 37.8244C200.969 39.7822 197.816 42.4706 195.098 45.4762C192.327 48.397 190.045 51.7196 188.006 55.2431C185.915 58.6819 184.343 62.3847 182.634 66.0559C176.019 80.719 169.541 95.4137 163.064 110.108L163.393 110.256Z" fill="#F5D41C"/>
<path d="M186.869 104.016L194.125 86.2353C196.614 80.4212 198.997 74.4378 201.762 68.6868C204.58 63.0204 208.035 57.427 212.647 53.1136C214.953 50.957 217.695 49.1173 220.799 48.231C223.818 47.3978 227.168 47.6558 230.075 48.9004C233.067 50.0919 235.478 52.2386 237.433 54.7891C239.474 57.2864 241.006 60.1028 242.485 62.8345C244.018 65.6508 245.688 68.4987 247.675 70.9113C248.78 72.1067 249.97 73.2491 251.36 74.1471C252.782 74.9073 254.151 75.5828 255.573 76.343L289.605 94.058L289.721 93.867L273.08 84.4787L256.186 75.2499C254.848 74.4366 253.288 73.6448 252.089 72.863C250.889 72.0811 249.806 71.1082 248.839 69.9442C246.905 67.6163 245.341 64.9378 243.809 62.1214C242.277 59.3051 240.829 56.4355 238.682 53.7689C236.673 51.1337 233.965 48.7014 230.644 47.3622C227.462 46.0545 223.751 45.7868 220.34 46.748C216.929 47.7092 214.018 49.6551 211.595 52.0028C206.782 56.5604 203.296 62.2917 200.584 68.1275C197.872 73.9632 195.627 79.9781 193.329 85.9084L186.731 103.985L186.869 104.016Z" fill="#FFCF05"/>
<path d="M172.528 139.472L177.79 126.603L182.915 113.702L182.777 113.671C182.058 114.595 181.477 115.55 180.811 116.558L179.143 119.731C178.034 121.726 177.117 123.838 176.252 126.034C174.554 130.288 173.101 134.743 172.39 139.44L172.528 139.472Z" fill="#FFCF05"/>
<path d="M148.623 198.999L158.356 174.821L168.004 150.696L167.866 150.665C166.789 152.522 165.85 154.411 164.826 156.353L162.029 162.242C160.172 166.242 158.537 170.22 156.818 174.252C155.321 178.262 153.74 182.325 152.296 186.419L150.242 192.551C149.685 194.672 148.99 196.761 148.432 198.883L148.623 198.999Z" fill="#FFCF05"/>
<path d="M82.6505 275.023C86.6388 276.298 90.7531 277.02 94.9186 276.884C99.1157 276.61 103.141 275.5 106.858 273.52C114.344 269.646 119.852 262.999 124.205 256.015C128.451 248.861 131.71 241.265 134.779 233.552L144.005 210.637L143.676 210.489C141.553 214.066 139.759 217.79 137.774 221.398C135.86 225.119 134.037 228.861 132.307 232.625C130.513 236.349 128.941 240.052 127.094 243.691C125.246 247.331 123.346 250.886 121.286 254.187C119.194 257.626 116.997 260.895 114.31 263.763C111.815 266.747 108.863 269.191 105.644 271.212C99.155 275.169 90.9422 276.193 82.7982 274.694L82.6505 275.023Z" fill="#FFCF05"/>
<path fill-rule="evenodd" clip-rule="evenodd" d="M88.4599 164.866C87.8731 168.069 88.5271 171.555 90.3667 174.296C92.2062 177.038 95.2314 179.035 98.4339 179.622C101.636 180.209 105.207 179.501 107.895 177.577C110.584 175.653 112.496 172.681 113.114 169.341C113.701 166.138 112.994 162.567 111.07 159.879C109.23 157.138 106.258 155.225 103.056 154.638C99.7154 154.02 96.3358 154.843 93.6475 156.768C90.9059 158.607 89.0468 161.664 88.4599 164.866ZM88.7357 164.929C89.0291 163.328 89.6514 161.875 90.5495 160.484C91.5007 159.178 92.6962 158.073 93.9134 157.191C96.6765 155.574 99.877 155.218 102.825 155.964C105.551 156.732 107.993 158.741 109.26 161.134C110.004 162.319 110.442 163.58 110.71 164.947C110.924 166.229 110.916 167.533 110.654 168.996C109.711 174.075 104.782 178.824 98.6111 178.212C95.7592 177.995 92.7774 176.443 90.8748 173.977C89.9392 172.676 89.2577 171.214 88.8835 169.678C88.5093 168.142 88.4423 166.531 88.7357 164.929Z" fill="#E6C778"/>
<path fill-rule="evenodd" clip-rule="evenodd" d="M74.3019 196.665C73.6304 199.92 74.369 203.353 76.2086 206.095C78.0482 208.836 80.9355 210.802 84.2227 211.335C87.4783 212.007 90.9111 211.268 93.5995 209.344C96.341 207.504 98.2848 204.395 98.8717 201.192C99.4053 197.905 98.7514 194.419 96.9118 191.677C95.0722 188.936 92.047 186.939 88.7599 186.405C85.5574 185.818 82.0399 186.61 79.3515 188.534C76.6632 190.459 74.8356 193.378 74.3019 196.665ZM74.4398 196.696C74.7864 195.18 75.4402 193.588 76.3068 192.336C77.2048 190.945 78.4003 189.84 79.7553 188.989C82.3806 187.341 85.7189 187.016 88.5294 187.731C91.3931 188.53 93.6975 190.508 95.1018 192.932C96.453 195.272 96.904 198.059 96.3585 200.763C95.9824 203.361 94.4719 205.844 92.3448 207.534C90.271 209.309 87.3581 210.311 84.4531 210.01C81.548 209.709 78.6193 208.241 76.7167 205.776C75.6965 204.527 75.015 203.066 74.6408 201.529C74.2665 199.993 74.2842 198.329 74.4398 196.696Z" fill="#E6C778"/>
<path d="M98.9595 252.856C97.4272 250.04 94.8254 247.777 91.7707 246.861C88.7159 245.945 85.3244 246.186 82.4549 247.634C79.5853 249.081 77.3224 251.683 76.2688 254.706C75.2152 257.729 75.3177 261.089 76.596 264.065C77.8211 266.956 80.3067 269.41 83.2137 270.655C86.2054 271.847 89.6186 271.829 92.563 270.688C95.592 269.495 98.0145 267.147 99.3438 264.187C100.642 261.365 100.846 257.93 99.7907 254.932L99.706 254.985C101.203 261.13 97.6127 267.636 92.041 269.481C89.3822 270.324 86.4141 270.299 83.836 269.202C81.2579 268.105 79.2076 265.968 78.142 263.331C76.9603 260.885 76.8479 257.885 77.7538 255.191C78.6598 252.496 80.6056 250.33 83.0615 248.788C88.0798 245.873 95.3867 247.543 98.737 252.878L98.9595 252.856Z" fill="#A8766B"/>
<path d="M77.1051 224.07C75.0903 223.682 73.0243 224.153 71.3837 225.302C69.6052 226.418 68.528 228.276 68.14 230.29C67.6989 232.22 68.2228 234.371 69.3711 236.012C70.5194 237.652 72.3451 238.867 74.36 239.255L74.3915 239.118C72.4397 238.454 70.8364 237.217 69.8792 235.693C68.9535 234.03 68.5044 232.187 68.914 230.395C69.239 228.656 70.2847 226.936 71.7028 225.81C73.1208 224.683 75.0805 224.043 77.0736 224.208L77.1051 224.07Z" fill="#F9F9F9"/>
<path d="M74.36 239.255C76.2901 239.696 78.4408 239.172 80.1346 238.109C81.8599 236.907 83.075 235.082 83.4629 233.067C83.7662 231.105 83.327 228.901 82.1255 227.176C80.9773 225.535 79.0668 224.373 77.1052 224.07L77.0737 224.208C78.9625 225.148 80.2584 226.459 80.9931 228.005C81.8124 229.498 82.102 231.088 81.7771 232.827C81.5151 234.29 80.5856 235.818 79.3901 236.923C78.1099 238.081 76.3945 238.922 74.3915 239.117L74.36 239.255Z" fill="#A15C00"/>
<path d="M110.522 236.858C111.213 237.958 112.667 238.581 114.055 238.535C115.582 238.522 116.821 237.862 118.006 237.117C120.271 235.459 121.697 233.029 122.763 230.588C123.499 228 124.045 225.296 123.371 222.531C123.018 221.217 122.528 219.872 121.529 218.846C120.531 217.82 119.046 217.336 117.732 217.688L117.785 217.773C119.036 217.696 120.214 218.255 120.99 219.303C121.797 220.213 122.234 221.473 122.449 222.756C122.825 225.235 122.396 227.748 121.553 230.167C120.657 232.501 119.347 234.74 117.39 236.324C116.342 237.1 115.241 237.791 113.991 237.868C112.793 238.029 111.499 237.661 110.638 236.666L110.522 236.858Z" fill="#65391F"/>
<path d="M117.488 217.487C116.416 217.097 115.219 217.259 114.266 217.621C113.228 218.037 112.265 218.76 111.577 219.546C109.98 221.139 108.903 222.996 108.07 225.054C107.375 227.144 107.008 229.381 107.257 231.469C107.365 232.582 107.611 233.726 108.111 234.711C108.612 235.696 109.451 236.468 110.522 236.858L110.638 236.667C109.746 235.81 109.437 234.941 109.266 234.104C109.126 233.129 109.177 232.271 109.175 231.327C109.447 229.504 109.856 227.711 110.488 225.897C110.79 224.999 111.156 224.14 111.585 223.319C111.997 222.47 112.462 221.706 112.927 220.942C113.529 220.209 114.047 219.53 114.703 218.882C115.497 218.265 116.259 217.787 117.425 217.763L117.488 217.487Z" fill="#FFB820"/>
<path d="M110.522 236.858C111.54 237.163 112.738 237.001 113.691 236.639C114.729 236.223 115.607 235.554 116.379 234.715C117.892 233.175 118.969 231.317 119.664 229.228C120.413 227.223 120.832 225.07 120.616 222.844C120.56 221.816 120.23 220.725 119.729 219.74C119.282 218.84 118.475 217.93 117.403 217.541L117.456 217.625C118.358 218.122 119.028 219 119.391 219.953C119.753 220.906 119.893 221.881 119.948 222.909C120.058 224.966 119.67 226.98 118.922 228.985C118.258 230.937 117.266 232.741 115.891 234.313C115.204 235.099 114.41 235.715 113.563 236.247C112.663 236.694 111.657 236.972 110.554 236.72L110.522 236.858Z" fill="white"/>
<path d="M121.667 213.8C122.167 214.785 123.398 215.429 124.617 215.49C125.868 215.413 126.991 214.945 127.954 214.222C129.933 212.861 131.127 210.812 131.96 208.754C132.655 206.665 133.053 204.289 132.422 201.969C132.091 200.878 131.623 199.756 130.73 198.899C129.754 198.095 128.513 197.812 127.422 198.143L127.475 198.227C128.503 198.172 129.574 198.562 130.191 199.356C130.945 200.181 131.308 201.134 131.501 202.194C131.834 204.228 131.499 206.328 130.75 208.333C130.087 210.285 129.009 212.142 127.39 213.513C126.597 214.129 125.612 214.629 124.552 214.823C123.524 214.878 122.453 214.488 121.752 213.747L121.667 213.8Z" fill="#65391F"/>
<path d="M126.933 197.741C126.053 197.467 125.025 197.522 124.209 197.916C123.341 198.225 122.632 198.789 121.976 199.437C120.664 200.733 119.788 202.346 119.103 204.075C118.502 205.751 118.23 207.575 118.404 209.355C118.49 210.245 118.715 211.167 119.109 211.983C119.503 212.798 120.288 213.485 121.169 213.759L121.285 213.568C120.584 212.827 120.381 212.128 120.347 211.323C120.282 210.655 120.302 209.934 120.406 209.16C120.584 207.75 120.93 206.234 121.468 204.833C121.671 204.154 121.967 203.497 122.354 202.86C122.596 202.117 123.03 201.491 123.378 200.918C123.812 200.291 124.245 199.665 124.731 199.123C125.271 198.667 125.811 198.21 126.87 198.017L126.933 197.741Z" fill="#FFB820"/>
<path d="M121.169 213.759C122.049 214.033 123.024 213.893 123.808 213.637C124.623 213.243 125.332 212.68 125.988 212.032C127.3 210.736 128.229 209.207 128.83 207.531C129.431 205.855 129.702 204.031 129.529 202.251C129.409 200.555 128.631 198.564 126.902 197.879L126.817 197.932C127.581 198.397 128.144 199.106 128.401 199.89C128.741 200.62 128.913 201.457 128.861 202.316C128.928 203.927 128.604 205.666 128.034 207.204C127.518 208.827 126.673 210.302 125.584 211.577C125.013 212.171 124.357 212.819 123.627 213.16C122.949 213.586 122.112 213.757 121.2 213.621L121.169 213.759Z" fill="white"/>
<path d="M128.105 195.47C128.351 196.614 129.212 197.609 130.421 198.03C131.768 198.483 133.082 198.131 134.205 197.662C136.428 196.502 137.844 194.432 138.762 192.32C139.626 190.124 140.162 187.781 139.701 185.354C139.455 184.21 139.071 183.034 138.263 182.124C137.403 181.13 136.225 180.57 135.081 180.817L135.049 180.954C136.13 180.984 137.086 181.565 137.755 182.443C138.34 183.375 138.618 184.381 138.726 185.494C139.028 187.666 138.524 189.872 137.637 191.846C136.836 193.766 135.536 195.645 133.673 196.815C132.741 197.4 131.65 197.731 130.632 197.426C129.529 197.174 128.69 196.402 128.19 195.417L128.105 195.47Z" fill="#65391F"/>
<path d="M134.232 180.405C133.298 180.047 132.408 180.133 131.539 180.443C130.724 180.836 129.962 181.315 129.306 181.963C128.079 183.206 127.149 184.734 126.549 186.41C126.033 188.033 125.708 189.772 125.881 191.553C125.968 192.443 126.192 193.365 126.671 194.127C127.065 194.942 127.798 195.545 128.593 195.872L128.656 195.596C128.093 194.887 127.89 194.188 127.825 193.52C127.707 192.768 127.865 192.078 127.884 191.358C128.042 190.668 128.061 189.947 128.357 189.29C128.514 188.6 128.64 188.049 128.967 187.253C129.171 186.574 129.42 185.906 129.716 185.248C130.011 184.59 130.444 183.964 130.793 183.391C131.142 182.818 131.575 182.191 132.115 181.735C132.601 181.193 133.194 180.821 134.116 180.596L134.232 180.405Z" fill="#FFB820"/>
<path d="M128.625 195.734C130.354 196.419 132.186 195.387 133.328 194.198C134.555 192.955 135.485 191.426 136.001 189.804C136.601 188.127 136.926 186.388 136.806 184.693C136.601 183.05 135.876 181.144 134.147 180.458L134.116 180.596C135.591 181.441 136.071 183.147 136.138 184.758C136.149 186.404 135.855 188.005 135.258 189.561C134.774 191.046 133.929 192.522 132.871 193.658C132.353 194.337 131.729 194.848 131.051 195.273C130.321 195.614 129.537 195.87 128.71 195.681L128.625 195.734Z" fill="white"/>
<path d="M134.862 177.648C135.14 178.654 136.054 179.733 137.263 180.155C138.472 180.576 139.786 180.224 140.855 179.67C143.079 178.51 144.495 176.44 145.466 174.413C146.33 172.217 146.866 169.874 146.458 167.532C146.212 166.388 145.828 165.212 145.02 164.302C144.298 163.339 143.067 162.695 141.869 162.856L141.922 162.941C142.972 163.108 143.927 163.689 144.512 164.621C145.097 165.553 145.375 166.559 145.483 167.672C145.647 169.813 145.174 171.881 144.288 173.854C143.486 175.774 142.187 177.653 140.408 178.77C139.477 179.355 138.386 179.686 137.336 179.519C136.371 179.298 135.478 178.441 134.947 177.594L134.862 177.648Z" fill="#65391F"/>
<path d="M140.754 162.021C139.874 161.748 138.931 161.75 138.115 162.143C137.247 162.453 136.4 162.985 135.744 163.632C134.517 164.875 133.503 166.457 132.902 168.133C132.301 169.809 132.03 171.633 132.256 173.498C132.343 174.388 132.652 175.257 133.046 176.072C133.525 176.834 134.173 177.49 135.106 177.848L135.169 177.573C133.989 176.07 134.167 174.66 134.206 173.218C134.364 172.529 134.383 171.808 134.626 171.065C134.868 170.323 134.962 169.909 135.321 168.976C135.531 168.371 135.858 167.575 136.154 166.918C136.449 166.26 136.798 165.687 137.231 165.06C137.58 164.487 138.013 163.861 138.553 163.404C139.092 162.947 139.717 162.437 140.691 162.297L140.754 162.021Z" fill="#FFB820"/>
<path d="M135.138 177.711C136.867 178.396 138.699 177.364 139.979 176.206C141.206 174.963 142.167 173.297 142.821 171.705C143.283 169.998 143.693 168.206 143.435 166.478C143.262 164.698 142.452 162.845 140.723 162.159L140.691 162.297C142.304 163.174 142.7 164.932 142.767 166.543C142.834 168.154 142.594 169.84 141.94 171.432C141.509 173.001 140.664 174.477 139.522 175.666C138.951 176.261 138.295 176.909 137.564 177.25C136.833 177.591 136.05 177.847 135.138 177.711Z" fill="white"/>
<path d="M165.808 149.832C165.013 149.505 164.386 149.071 164.046 148.341C163.673 147.748 163.555 146.995 163.437 146.243C163.476 144.801 163.823 143.285 164.498 141.916C165.142 140.685 166.232 139.411 167.417 138.666C168.656 138.006 170.214 137.855 171.541 139.029L171.626 138.975C171.201 138.298 170.468 137.695 169.556 137.559C168.729 137.37 167.839 137.457 167.023 137.851C165.424 138.501 164.166 139.882 163.321 141.357C162.614 142.863 162.204 144.656 162.462 146.383C162.633 147.22 162.943 148.089 163.591 148.744C164.154 149.453 164.918 149.918 165.777 149.969L165.808 149.832Z" fill="#65391F"/>
<path d="M165.893 149.778C165.521 149.185 165.286 148.624 165.137 148.01C165.022 147.452 165.011 146.869 165.101 146.261C165.162 145.042 165.499 143.886 166.027 142.846C166.555 141.806 167.358 140.829 168.236 140.159C169.146 139.352 170.269 138.883 171.594 139.113L171.626 138.975C170.363 138.469 168.965 138.875 167.864 139.566C166.763 140.258 165.875 141.288 165.316 142.466C164.756 143.643 164.388 144.937 164.38 146.241C164.372 147.545 164.863 148.89 165.808 149.831L165.893 149.778Z" fill="white"/>
<path d="M171.595 139.113C172.784 140.256 172.861 141.506 172.8 142.725C172.739 143.945 172.317 145.154 171.705 146.247C171.642 146.523 171.494 146.852 171.378 147.043L171.061 147.478C170.948 147.549 170.853 147.648 170.775 147.775C170.427 148.348 169.919 148.668 169.464 149.071C168.585 149.741 167.378 150.263 165.84 149.694L165.808 149.832C166.35 150.318 167.061 150.698 167.835 150.803C168.641 150.769 169.393 150.651 170.07 150.225C171.447 149.597 172.536 148.323 173.265 147.039C173.94 145.67 174.287 144.153 174.135 142.595C173.984 141.038 173.164 139.545 171.626 138.976L171.595 139.113Z" fill="#E5BA3D"/>
<path fill-rule="evenodd" clip-rule="evenodd" d="M89.2615 162.946C88.8106 165.237 90.3212 167.831 92.856 168.483C94.0121 168.819 95.4322 168.636 96.5331 167.945C97.7187 167.2 98.5006 166.001 98.731 164.675C99.0146 163.435 98.6403 161.898 97.8643 160.851C97.0036 159.856 95.8574 159.159 94.5004 159.066C92.0404 158.722 89.5746 160.624 89.2615 162.946ZM89.3994 162.978C89.7125 160.656 92.2 158.976 94.4058 159.48C95.5934 159.679 96.6018 160.344 97.24 161.361C97.9096 162.239 98.1559 163.383 97.957 164.571C97.7049 165.674 97.0392 166.682 96.1608 167.352C95.2293 167.937 94.0003 168.236 92.9505 168.069C90.5753 167.671 88.9484 165.268 89.3994 162.978Z" fill="#775855"/>
<path fill-rule="evenodd" clip-rule="evenodd" d="M75.391 195.39C74.8553 197.734 76.366 200.328 78.9008 200.98C80.1416 201.263 81.5616 201.08 82.6625 200.389C83.7635 199.698 84.5454 198.498 84.8604 197.119C85.0062 195.847 84.6851 194.396 83.9091 193.348C83.133 192.3 81.9021 191.656 80.6298 191.51C78.0852 191.219 75.7041 193.068 75.391 195.39ZM75.4442 195.475C75.842 193.1 78.2447 191.473 80.5352 191.924C82.8573 192.237 84.5374 194.725 84.0332 196.93C83.8343 198.118 83.1687 199.126 82.2903 199.796C81.274 200.434 80.1297 200.68 78.9421 200.482C77.8924 200.314 76.884 199.648 76.1611 198.685C75.5762 197.754 75.2768 196.525 75.4442 195.475Z" fill="#775855"/>
<path fill-rule="evenodd" clip-rule="evenodd" d="M95.4869 154.432C90.8271 156.413 86.7898 162.019 80.7752 175.006C71.0147 196.131 70.5422 203.276 78.2412 209.896L79.4623 210.9L88.7876 194.535L88.309 193.773C88.309 193.773 83.3653 186.841 85.122 180.424C86.406 176.075 90.6286 172.833 97.3977 170.826L98.0122 170.676L105.852 153.827L103.997 153.693C100.7 153.52 98.0394 153.42 95.4869 154.432ZM101.988 156.135L96.1845 168.518C88.6846 170.866 84.1982 174.628 82.6719 179.719C80.9153 186.136 84.4585 192.53 85.788 194.648L78.765 206.969C74.1444 202.431 73.4648 196.836 83.0775 176.04C88.7652 163.848 92.4638 158.456 96.393 156.815C98.0769 156.112 99.8258 156.076 101.988 156.135Z" fill="#DCBECC"/>
<path fill-rule="evenodd" clip-rule="evenodd" d="M82.6877 262.484C82.1835 264.689 83.7474 267.368 86.229 267.935C87.3851 268.272 88.8051 268.089 89.906 267.397C91.0917 266.653 91.9267 265.538 92.1571 264.213C92.3875 262.887 92.0664 261.436 91.2904 260.388C90.3766 259.309 89.2303 258.611 87.8733 258.519C85.4134 258.174 83.0008 260.162 82.6877 262.484ZM82.7723 262.43C83.1386 260.193 85.5729 258.428 87.9166 258.964C88.9664 259.131 89.9748 259.797 90.6129 260.813C91.2826 261.692 91.582 262.921 91.3299 264.024C91.0168 266.346 88.614 267.973 86.3235 267.522C85.1359 267.323 84.1275 266.657 83.4578 265.779C82.8197 264.762 82.5735 263.618 82.7723 262.43Z" fill="#775855"/>
<path d="M122.513 258.022C121.457 256.717 120.335 255.493 119.145 254.351C117.871 253.262 116.427 252.279 114.952 251.434C113.392 250.642 111.716 250.042 109.829 250.045C108.049 250.219 106.459 250.508 104.785 250.851C101.522 251.483 98.2269 252.254 94.9851 253.108L90.1756 254.475L85.4724 256.012L85.4409 256.15C91.9776 254.525 98.4298 252.953 104.957 251.688C106.546 251.399 108.22 251.056 109.863 250.851C111.474 250.784 113.097 251.3 114.603 252.007C117.67 253.506 120.134 255.737 122.513 258.022Z" fill="white"/>
<path d="M90.9653 257.049C96.3263 255.809 101.634 254.483 107.07 253.549C108.352 253.335 109.75 252.929 111.076 253.159C112.486 253.336 113.717 253.98 114.863 254.678C117.241 256.019 119.269 257.933 121.213 259.901L121.245 259.763C120.366 258.74 119.46 257.735 118.525 256.747C117.498 255.739 116.394 254.858 115.212 254.104C114.012 253.323 112.728 252.594 111.18 252.385C110.491 252.228 109.601 252.314 108.933 252.379L106.899 252.712C104.165 253.248 101.484 253.868 98.8571 254.574L94.8314 255.684L90.9121 256.965L90.9653 257.049Z" fill="#775855"/>
<path d="M75.4115 230.211C75.7188 230.136 82.0232 228.893 85.4777 228.377C85.8873 228.278 86.2687 228.195 86.6219 228.131C89.6629 227.521 92.3552 227.483 97.4622 231.479L108.895 203.99L101.434 199.819L87.3481 200.517C86.5425 200.55 85.8945 199.894 85.861 199.089C85.8275 198.283 86.4834 197.635 87.2889 197.602L102.043 196.839L109.97 201.19L122.003 172.025L114.808 168.277L100.732 168.614C100.011 168.594 99.2786 167.992 99.2451 167.186C99.2963 166.328 99.899 165.595 100.758 165.646L115.501 165.244L123.131 169.309L151.142 101.654C151.469 100.858 152.285 100.464 153.08 100.791C153.791 101.171 154.185 101.986 153.805 102.697L112.18 203.581C112.138 203.764 112.078 203.92 112.001 204.047C112.036 204.104 112.025 204.15 111.969 204.185L99.7666 233.456C100.418 233.992 101.041 234.546 101.636 235.117C102.231 235.688 102.232 236.631 101.661 237.226C101.09 237.821 100.147 237.823 99.552 237.252C92.0637 230.028 89.8599 230.467 87.2641 231.034C86.8544 231.134 86.3988 231.223 85.8972 231.302C82.5274 231.765 76.0537 233.114 76.0537 233.114C75.8488 233.164 75.6545 233.168 75.4707 233.126C74.9192 233 74.3776 232.514 74.2811 231.984C74.1097 231.147 74.5745 230.383 75.4115 230.211Z" fill="#EC7BBD"/>
<path d="M142.456 159.654C142.511 160.682 143.234 161.645 144.475 161.929C145.716 162.212 146.785 161.659 147.632 161.127C149.442 159.872 150.572 158.1 151.427 156.264C152.144 154.397 152.617 152.329 152.506 150.273C152.366 149.298 152.173 148.238 151.588 147.307C151.088 146.322 150.026 145.572 149.02 145.849L148.989 145.987C149.932 145.985 150.633 146.726 151.027 147.541C151.336 148.41 151.476 149.385 151.478 150.328C151.482 152.215 150.988 154.06 150.302 155.79C149.479 157.487 148.518 159.154 147.015 160.333C146.306 160.897 145.46 161.428 144.548 161.292C143.551 161.21 142.85 160.469 142.541 159.601L142.456 159.654Z" fill="#65391F"/>
<path d="M148.15 145.215C147.354 144.888 146.432 145.113 145.701 145.454C145.024 145.879 144.4 146.389 143.829 146.984C142.824 148.205 142.064 149.627 141.442 151.081C140.872 152.619 140.579 154.22 140.593 155.747C140.626 156.552 140.713 157.442 141.054 158.173C141.31 158.957 141.873 159.666 142.616 159.908L142.732 159.717C142.253 158.955 142.241 158.372 142.261 157.651C142.334 157.015 142.46 156.463 142.617 155.774C142.775 155.085 142.901 154.533 143.196 153.875C143.354 153.186 143.533 152.719 143.775 151.977C144.282 150.714 144.788 149.452 145.4 148.359C145.696 147.701 145.96 147.181 146.361 146.693C146.562 146.448 146.763 146.204 147.049 145.907C147.162 145.836 147.303 145.747 147.472 145.641C147.557 145.588 147.864 145.513 148.087 145.491L148.15 145.215Z" fill="#FFB820"/>
<path d="M142.7 159.855C143.443 160.097 144.28 159.926 145.01 159.585C145.688 159.16 146.312 158.649 146.799 158.108C147.803 156.887 148.563 155.465 149.186 154.011C149.67 152.526 150.101 150.956 150.034 149.345C150.001 148.54 149.883 147.788 149.627 147.004C149.424 146.305 148.86 145.596 148.065 145.269L148.033 145.406C148.744 145.787 149.085 146.517 149.235 147.132C149.353 147.884 149.471 148.636 149.367 149.41C149.271 150.888 148.945 152.312 148.39 153.684C147.905 155.169 147.177 156.453 146.257 157.621C145.908 158.195 145.337 158.789 144.745 159.162C144.205 159.619 143.506 159.821 142.647 159.77L142.7 159.855Z" fill="white"/>
<path d="M150.024 139.551C150.164 140.526 150.94 141.574 152.181 141.857C153.369 142.056 154.491 141.588 155.285 140.971C157.095 139.716 158.225 137.944 159.08 136.108C159.85 134.326 160.323 132.258 160.159 130.117C160.019 129.142 159.826 128.082 159.241 127.151C158.71 126.304 157.68 125.416 156.588 125.747L156.642 125.831C157.585 125.829 158.286 126.57 158.68 127.385C159.043 128.338 159.129 129.229 159.131 130.172C159.135 132.059 158.641 133.904 157.956 135.634C157.132 137.331 156.171 138.998 154.669 140.177C153.96 140.741 153.113 141.272 152.201 141.137C151.257 141.139 150.556 140.398 150.194 139.445L150.024 139.551Z" fill="#65391F"/>
<path d="M155.718 125.112C154.922 124.785 154.085 124.957 153.408 125.382C152.677 125.723 152.053 126.233 151.535 126.913C150.477 128.049 149.717 129.471 149.095 130.925C148.61 132.41 148.317 134.011 148.246 135.59C148.279 136.396 148.398 137.148 148.654 137.932C148.994 138.663 149.473 139.425 150.269 139.752L150.385 139.561C149.737 138.905 149.587 138.291 149.522 137.623C149.457 136.955 149.477 136.234 149.634 135.545C149.865 134.22 150.18 132.841 150.771 131.525C151.178 130.168 151.758 128.898 152.512 127.716C152.913 127.228 153.347 126.601 153.886 126.144C154.288 125.656 154.796 125.337 155.686 125.25L155.718 125.112Z" fill="#FFD033"/>
<path d="M150.3 139.614C151.096 139.941 151.933 139.77 152.61 139.344C153.341 139.003 153.912 138.409 154.399 137.867C155.456 136.731 156.216 135.309 156.786 133.77C157.323 132.37 157.701 130.716 157.688 129.189C157.654 128.384 157.536 127.631 157.28 126.848C157.024 126.064 156.46 125.355 155.718 125.112L155.633 125.166C156.397 125.63 156.685 126.276 156.888 126.976C157.006 127.728 157.071 128.396 156.967 129.17C156.871 130.647 156.563 132.1 156.043 133.528C155.505 134.929 154.777 136.213 153.91 137.465C153.508 137.954 152.937 138.549 152.398 139.005C151.805 139.378 151.159 139.665 150.3 139.614Z" fill="white"/>
<path d="M156.508 122.609C156.51 123.553 157.148 124.569 158.251 124.821C159.407 125.158 160.445 124.742 161.345 124.295C163.039 123.231 164.222 121.543 165.099 119.93C165.837 118.286 166.416 116.387 166.359 114.416C166.357 113.472 166.217 112.497 165.632 111.566C165.238 110.75 164.261 109.947 163.286 110.087L163.255 110.225C164.114 110.276 164.815 111.016 165.071 111.8C165.38 112.669 165.414 113.474 165.362 114.333C165.228 116.188 164.713 117.811 163.921 119.371C163.129 120.931 162.146 122.375 160.813 123.448C160.051 123.927 159.235 124.321 158.377 124.269C157.465 124.134 156.902 123.424 156.592 122.556L156.508 122.609Z" fill="#65391F"/>
<path d="M162.416 109.453C161.758 109.157 160.868 109.244 160.275 109.616C159.629 109.904 159.005 110.414 158.465 110.871C157.407 112.007 156.626 113.207 156.035 114.522C155.497 115.923 155.097 117.354 154.973 118.849C154.954 119.57 155.072 120.322 155.275 121.022C155.531 121.806 155.956 122.483 156.699 122.725L156.73 122.587C156.273 122.048 156.124 121.433 156.196 120.797C156.131 120.129 156.257 119.578 156.33 118.942C156.699 117.648 157.035 116.492 157.541 115.229C158.055 114.041 158.678 112.902 159.41 111.812C159.812 111.324 160.214 110.835 160.669 110.431C161.124 110.028 161.579 109.624 162.384 109.59L162.416 109.453Z" fill="#FFD033"/>
<path d="M156.699 122.725C157.356 123.021 158.193 122.849 158.839 122.562C159.485 122.274 160.11 121.764 160.596 121.223C161.622 120.224 162.436 118.887 163.027 117.571C163.617 116.255 164.017 114.824 164.057 113.382C164.076 112.661 164.043 111.855 163.84 111.156C163.552 110.51 163.127 109.833 162.416 109.453L162.384 109.591C163.011 110.024 163.298 110.67 163.363 111.338C163.513 111.952 163.493 112.673 163.42 113.309C163.254 114.673 162.857 115.985 162.231 117.244C161.778 118.591 160.996 119.791 160.108 120.821C159.706 121.309 159.22 121.851 158.711 122.17C158.119 122.542 157.419 122.745 156.73 122.588L156.699 122.725Z" fill="white"/>
<path d="M180.189 112.934C179.393 112.608 178.989 112.153 178.617 111.56C178.383 110.998 178.18 110.299 178.168 109.716C178.123 108.328 178.491 107.034 179.135 105.803C179.694 104.625 180.667 103.542 181.683 102.904C182.784 102.212 184.204 102.029 185.479 103.118L185.563 103.065C185.138 102.388 184.458 101.87 183.631 101.681C182.857 101.576 182.052 101.61 181.321 101.95C179.86 102.632 178.717 103.822 177.957 105.244C177.282 106.612 176.904 108.267 177.193 109.856C177.311 110.609 177.567 111.392 178.162 111.964C178.672 112.588 179.436 113.053 180.157 113.072L180.189 112.934Z" fill="#65391F"/>
<path d="M186.349 103.752C186.924 105.044 186.672 106.147 186.452 107.112C186.2 108.215 185.841 109.149 185.292 109.966L185.176 110.157C185.176 110.157 185.144 110.295 185.229 110.242L185.144 110.295L184.827 110.73C184.693 110.893 184.559 111.056 184.425 111.219C184.108 111.654 183.685 111.92 183.314 112.27C182.552 112.749 181.652 113.196 180.273 112.881L180.189 112.934C181.134 113.876 182.629 114 183.836 113.478C185.044 112.956 186.07 111.957 186.735 110.949C187.433 109.803 187.801 108.509 187.809 107.205C187.817 105.901 187.549 104.534 186.519 103.646L186.349 103.752Z" fill="#E5BA3D"/>
<path d="M180.273 112.881C179.901 112.288 179.667 111.727 179.57 111.197C179.513 110.604 179.501 110.021 179.535 109.448C179.734 108.261 180.07 107.105 180.789 106.181C181.317 105.141 182.142 104.387 183.074 103.802C184.09 103.164 185.341 103.087 186.434 103.699L186.519 103.646C185.573 102.705 183.994 102.634 182.871 103.103C181.664 103.625 180.638 104.623 180.025 105.716C179.328 106.862 178.96 108.156 178.899 109.376C178.891 110.679 179.243 111.993 180.189 112.934L180.273 112.881Z" fill="white"/>
<path d="M143.284 210.617C142.5 210.873 141.695 210.907 141.291 210.452C140.994 210.166 140.791 209.467 140.779 208.884C140.649 207.549 140.996 206.032 141.449 204.685C141.848 203.253 142.439 201.937 143.168 200.653C143.517 200.08 143.95 199.454 144.489 198.997C144.976 198.455 145.622 198.168 146.396 198.272L146.427 198.134C145.716 197.754 144.795 197.979 144.117 198.404C143.44 198.83 142.869 199.424 142.435 200.051C141.346 201.325 140.724 202.778 140.155 204.317C139.808 205.833 139.515 207.434 139.804 209.024C139.922 209.776 140.232 210.645 141.08 211.056C141.791 211.436 142.66 211.127 143.338 210.702L143.284 210.617Z" fill="#65391F"/>
<path d="M147.371 198.132C147.966 198.703 148.009 199.148 148.105 199.678C148.064 200.177 147.991 200.813 147.95 201.311C147.698 202.414 147.372 203.524 146.971 204.641C146.634 205.798 146.107 206.837 145.579 207.877C145.315 208.397 145.051 208.917 144.649 209.406C144.332 209.841 143.877 210.245 143.231 210.532L143.2 210.67C144.695 210.794 145.752 209.658 146.609 208.766C147.444 207.651 148.141 206.505 148.509 205.211C149.015 203.948 149.246 202.623 149.254 201.319C149.189 200.651 149.124 199.984 148.836 199.338C148.686 198.723 148.092 198.152 147.402 197.994L147.371 198.132Z" fill="#E5BA3D"/>
<path d="M143.231 210.532C142.573 210.237 142.308 209.814 142.158 209.199C142.008 208.585 141.996 208.002 142.069 207.366C142.183 206.231 142.467 204.99 142.888 203.781C143.31 202.572 143.922 201.479 144.588 200.47C144.919 199.869 145.321 199.38 145.793 199.005C146.195 198.516 146.703 198.197 147.371 198.132C145.961 197.955 144.85 199.007 144.046 199.984C143.211 201.098 142.599 202.192 142.146 203.539C141.724 204.748 141.356 206.042 141.401 207.431C141.467 208.098 141.532 208.766 141.766 209.327C142.053 209.973 142.51 210.513 143.284 210.617L143.231 210.532Z" fill="white"/>
<path d="M155.61 144.309C155.917 144.234 156.118 143.99 156.181 143.714L194.134 55.4105C194.344 54.8058 194.11 54.2445 193.505 54.0338C192.985 53.7699 192.286 53.9728 192.075 54.5774L154.208 142.828C153.997 143.433 154.285 144.079 154.804 144.343C155.08 144.406 155.349 144.395 155.61 144.309Z" fill="#EC7BBD"/>
<path d="M145.104 183.615C145.421 183.494 145.629 183.324 145.728 183.105L194.258 69.1478C194.469 68.5432 194.181 67.8972 193.661 67.6333C193.11 67.5072 192.411 67.7101 192.285 68.2616L143.754 182.219C143.49 182.739 143.778 183.385 144.298 183.648C144.609 183.768 144.878 183.757 145.104 183.615Z" fill="#EC7BBD"/>
<path d="M140.056 187.611C140.282 187.47 140.472 187.271 140.627 187.017L174.16 109.163C174.424 108.643 174.136 107.997 173.616 107.733C173.012 107.522 172.45 107.757 172.187 108.277L138.653 186.13C138.39 186.65 138.592 187.349 139.197 187.56C139.526 187.708 139.749 187.686 140.056 187.611Z" fill="#EC7BBD"/>
<path d="M256.073 62.0956L258.243 60.8508C257.924 60.3427 251.007 47.4465 242.638 39.9488C234.376 32.6204 222.466 24.7485 212.13 29.3496C202.494 33.7477 205.182 47.0556 206.939 55.8711C207.582 58.7741 208.096 61.2853 207.972 62.7801C207.871 65.4409 207.038 67.4991 205.567 68.541C204.127 69.445 202.494 69.2895 201.285 68.868L200.58 71.3181C202.946 72.0763 205.256 71.8065 207.066 70.5518C208.537 69.5099 210.345 67.3119 210.495 62.849C210.597 61.1316 210.061 58.3979 209.45 55.357C207.684 46.9019 205.285 35.1834 213.206 31.6263C222.673 27.3345 234.638 36.2344 240.84 41.7864C248.965 49.0832 255.967 61.9262 256.073 62.0956Z" fill="#846748"/>
<path d="M194.469 93.9302L193.699 95.7127L188.49 93.4341L189.291 91.5138L194.469 93.9302Z" fill="#EC7BBD"/>
<path d="M181.121 127.582L180.266 129.417L175.141 127.085L175.858 125.218L181.121 127.582Z" fill="#EC7BBD"/>
<path d="M161.803 160.376L167.097 162.602L166.327 164.384L161.086 162.244L161.803 160.376Z" fill="#EC7BBD"/>
<path d="M246.064 50.6686C246.212 50.6542 246.353 50.5656 246.487 50.4028L248.783 48.6065C249.492 48.0432 249.66 46.9935 248.959 46.253C248.395 45.5439 247.346 45.3766 246.69 46.0245L244.393 47.8208C243.684 48.3841 243.517 49.4338 244.133 50.2275C244.59 50.7672 245.418 50.9562 246.064 50.6686Z" fill="#EC7BBD"/>
<path d="M254.864 61.6742C254.58 62.915 255.409 64.0475 256.597 64.2463C257.838 64.5299 258.97 63.7007 259.254 62.4599C259.453 61.2723 258.708 60.0867 257.383 59.8563C256.195 59.6574 255.009 60.4019 254.864 61.6742Z" fill="#8753A4"/>
<path d="M180.725 130.9C180.951 130.758 181.113 130.578 181.211 130.358L202.266 76.6356C202.445 76.1689 202.264 75.6922 201.797 75.513C201.384 75.4185 200.907 75.5997 200.728 76.0665L179.62 129.705C179.441 130.171 179.622 130.648 180.089 130.827C180.308 130.926 180.52 130.95 180.725 130.9Z" fill="#EC7BBD"/>
<path d="M111.292 224.92L135.772 166.685L132.589 165.378L108.247 223.644L111.292 224.92Z" fill="#EC7BBD"/>
<path d="M165.616 164.004C165.82 163.954 165.972 163.82 166.071 163.6L172.914 146.668C173.062 146.339 172.828 145.778 172.499 145.63C172.032 145.451 171.555 145.632 171.376 146.099L164.479 162.947C164.3 163.413 164.481 163.89 164.948 164.069C165.132 164.111 165.354 164.089 165.616 164.004Z" fill="#EC7BBD"/>
<path d="M109.072 207.657L125.011 216.305L123.375 219.34L107.52 210.639L109.072 207.657Z" fill="#EC7BBD"/>
<path d="M132.731 197.76L131.095 200.795L115.24 192.094L116.877 189.059L132.731 197.76Z" fill="#EC7BBD"/>
<path d="M147.39 161.869L145.838 164.851L129.983 156.15L131.588 153.253L147.39 161.869Z" fill="#EC7BBD"/>
<path d="M138.121 134.509L153.975 143.21L152.286 146.161L136.431 137.46L138.121 134.509Z" fill="#EC7BBD"/>
<path d="M167.298 107.45L165.799 110.516L153.098 104.204L154.65 101.222L167.298 107.45Z" fill="#EC7BBD"/>
<path d="M160.041 124.287L158.489 127.269L145.246 120.47L146.798 117.488L160.041 124.287Z" fill="#EC7BBD"/>
<path d="M191.034 68.3384C190.835 69.526 191.526 70.627 192.714 70.8258C193.902 71.0247 195.003 70.3334 195.201 69.1458C195.4 67.9582 194.709 66.8572 193.521 66.6583C192.334 66.4594 191.233 67.1508 191.034 68.3384Z" fill="#8753A4"/>
<path d="M190.994 54.548C190.795 55.7356 191.54 56.9212 192.727 57.1201C193.915 57.319 194.963 56.543 195.162 55.3554C195.414 54.2525 194.585 53.12 193.482 52.8679C192.294 52.669 191.246 53.445 190.994 54.548Z" fill="#8753A4"/>
<path d="M171.074 108.385C170.875 109.572 171.651 110.62 172.839 110.819C173.942 111.071 175.074 110.242 175.326 109.139C175.525 107.951 174.749 106.904 173.561 106.705C172.458 106.453 171.273 107.197 171.074 108.385Z" fill="#8753A4"/>
<path d="M131.732 166.27C131.47 167.733 132.459 169.12 133.976 169.466C135.439 169.728 136.91 168.686 137.172 167.223C137.434 165.759 136.392 164.288 134.929 164.026C133.465 163.764 132.079 164.753 131.732 166.27Z" fill="#8753A4"/>
<path d="M107.822 222.967C107.475 224.483 108.464 225.87 109.98 226.216C111.528 226.425 112.915 225.436 113.177 223.973C113.523 222.456 112.481 220.985 111.018 220.723C109.47 220.515 108.03 221.419 107.822 222.967Z" fill="#8753A4"/>
<path d="M112.732 164.031C112.732 164.031 121.09 141.425 116.174 122.313C111.663 104.599 106.866 101.471 100.289 104.538C93.7133 107.605 97.3512 113.586 97.3512 113.586C97.3512 113.586 108.57 125.434 103.989 154.997C103.989 154.997 111.34 157.112 112.732 164.031Z" fill="#FFD13E"/>
<path d="M92.4744 103.187C96.2145 102.374 99.6039 101.19 102.572 101.215C104.014 101.255 105.254 101.538 106.348 102.151C107.579 102.795 108.683 103.99 109.619 105.292C111.374 108.087 112.696 111.508 113.741 114.866C114.925 118.255 115.855 121.804 116.816 125.216L117.261 125.172C116.935 121.519 116.451 117.927 115.807 114.395C115.047 110.74 114.255 107.222 112.605 103.654C111.626 101.907 110.509 100.128 108.746 98.6372C106.952 97.2842 104.386 96.7702 102.298 97.0185C100.126 97.3198 98.2725 98.1293 96.6634 99.1397C95.0261 100.168 93.5589 101.404 92.2617 102.848L92.4744 103.187Z" fill="#8753A4"/>
<path d="M105.852 153.827C102.778 153.632 99.5441 153.183 96.4402 154.07C93.3362 154.956 90.967 157.388 89.096 159.862C85.3225 164.947 82.6953 170.73 80.015 176.428C77.4409 182.295 74.8984 188.024 73.4805 194.228C72.7873 197.261 72.5294 200.612 73.5851 203.609C74.5562 206.66 76.9886 209.029 79.4623 210.9C77.1047 208.838 74.8949 206.447 73.9771 203.481C73.0592 200.515 73.4235 197.334 74.1699 194.386C75.5563 188.32 78.1835 182.537 80.726 176.808C83.4063 171.11 86.0335 165.328 89.5844 160.264C91.4022 157.705 93.6553 155.464 96.5682 154.461C99.4811 153.459 102.747 153.77 105.906 153.912L105.852 153.827Z" fill="white"/>
<path d="M79.4623 210.9L88.8723 194.482C87.2671 192.302 86.0853 189.856 85.3486 187.366C84.6967 184.824 84.606 182.047 85.5336 179.575C86.4612 177.103 88.4287 175.159 90.7153 173.723C92.9703 172.425 95.4381 171.466 98.0654 170.761L98.0122 170.676L105.906 153.912L105.852 153.827L101.577 162.062L97.4076 170.466L97.8625 170.062C95.2352 170.767 92.6296 171.695 90.343 173.131C87.9186 174.535 85.8664 176.532 84.7379 179.248C83.6941 181.911 83.9443 184.942 84.6495 187.569C85.4393 190.143 86.5896 192.727 88.2794 194.854L88.2144 194.187L83.7694 202.528L79.4623 210.9Z" fill="#775855"/>
<path d="M101.988 156.135L96.0998 168.571L96.1845 168.518C93.5256 169.361 90.8038 170.48 88.4857 172.053C86.1676 173.627 84.1371 175.847 83.0933 178.509C81.9964 181.088 81.9709 184.056 82.5066 186.789C83.0956 189.608 84.299 192.276 85.788 194.648L85.7348 194.563L78.765 206.969L78.8497 206.916L82.6743 200.972C83.8678 198.923 85.0613 196.875 86.308 194.911L86.4557 194.583L86.2961 194.328C84.8918 191.904 83.7947 189.405 83.259 186.671C82.7764 184.022 82.8236 181.277 83.8359 178.752C84.7634 176.28 86.6778 174.251 88.858 172.646C91.1761 171.072 93.6753 169.975 96.3342 169.132L96.5882 168.973L96.7044 168.782C97.6222 166.67 98.5399 164.559 99.373 162.501L101.988 156.135Z" fill="white"/>
<path d="M78.8497 206.916C77.9043 205.974 77.0436 204.98 76.5217 203.773C75.915 202.618 75.7003 201.336 75.6235 200.086C75.5013 197.446 76.0153 194.88 76.6671 192.345C78.1619 187.392 80.2928 182.512 82.3922 177.769C84.5763 172.973 86.8135 168.262 89.5707 163.815C90.9336 161.66 92.519 159.484 94.6145 157.932C96.6569 156.295 99.4654 156.066 101.988 156.135C100.716 155.99 99.359 155.897 98.0769 156.112C96.6569 156.295 95.4496 156.817 94.3171 157.646C92.0837 159.167 90.4983 161.343 88.9976 163.466C86.1025 167.882 83.8338 172.731 81.5965 177.442C79.5503 182.269 77.4509 187.012 76.1157 192.219C75.4638 194.754 74.9498 197.32 75.1252 200.044C75.2552 201.38 75.6609 202.778 76.2676 203.932C76.8742 205.086 77.7881 206.165 78.765 206.969L78.8497 206.916Z" fill="#775855"/>
<path d="M151.002 105.756L144.113 121.3L137.5 136.906L124.189 168.173L111.482 199.65L105.06 215.372L98.829 231.211L98.9668 231.243L151.002 105.756Z" fill="white"/>
<path d="M149.754 101.699C149.492 103.162 150.534 104.634 151.997 104.896C153.46 105.157 154.932 104.116 155.194 102.652C155.455 101.189 154.498 99.6645 152.95 99.4557C151.487 99.1938 150.1 100.183 149.754 101.699Z" fill="#8753A4"/>
<path d="M143.249 118.418C143.04 119.966 144.029 121.353 145.492 121.615C147.009 121.961 148.48 120.919 148.742 119.456C148.95 117.908 148.046 116.468 146.498 116.26C144.982 115.913 143.595 116.902 143.249 118.418Z" fill="#8753A4"/>
<path d="M136.088 135.786C135.826 137.249 136.868 138.72 138.331 138.982C139.795 139.244 141.319 138.287 141.528 136.739C141.79 135.275 140.801 133.889 139.285 133.542C137.821 133.28 136.435 134.269 136.088 135.786Z" fill="#8753A4"/>
<path d="M128.092 154.268C127.746 155.784 128.788 157.256 130.251 157.517C131.852 157.811 133.239 156.822 133.501 155.359C133.794 153.758 132.805 152.371 131.342 152.109C129.741 151.816 128.354 152.804 128.092 154.268Z" fill="#8753A4"/>
<path d="M113.381 190.074C113.034 191.59 114.076 193.062 115.539 193.324C117.003 193.585 118.474 192.544 118.736 191.08C119.083 189.564 118.041 188.092 116.577 187.831C115.029 187.622 113.643 188.61 113.381 190.074Z" fill="#8753A4"/>
<path d="M105.576 208.672C105.314 210.135 106.356 211.607 107.819 211.869C109.283 212.13 110.754 211.089 111.016 209.625C111.278 208.162 110.289 206.775 108.773 206.429C107.309 206.167 105.923 207.156 105.576 208.672Z" fill="#8753A4"/>
<path d="M96.4594 133.039C95.7838 129.33 94.6315 125.803 93.0558 122.542C92.268 120.911 91.3108 119.386 90.3221 118C89.7588 117.291 89.2486 116.667 88.6007 116.011C85.8925 113.579 81.8452 114.467 81.8452 114.467C87.7655 112.048 91.9486 105.171 91.9486 105.171C89.5203 109.765 90.6509 113.07 91.5234 114.648C91.828 115.008 92.1044 115.385 92.3526 115.78C92.4589 115.95 92.5653 116.119 92.6717 116.288C93.7352 117.982 94.6294 119.782 95.3858 121.551C96.8137 125.141 97.6804 128.966 98.1335 132.696C99.0081 140.295 98.2717 147.96 96.7396 155.298C97.7202 147.834 97.8422 140.318 96.4594 133.039Z" fill="#65391F"/>
<path d="M151.733 100.338C151.319 100.243 151.012 100.318 150.758 100.478C150.419 100.69 150.356 100.966 150.156 101.21C150.061 101.624 149.998 101.9 150.073 102.207C150.201 102.599 150.36 102.853 150.742 103.085L150.827 103.032C150.465 102.079 150.993 101.039 151.786 100.423L151.733 100.338Z" fill="white"/>
<path d="M145.504 117.12C145.09 117.026 144.783 117.101 144.529 117.26C144.19 117.473 144.127 117.749 143.926 117.993C143.779 118.322 143.769 118.682 143.844 118.989C143.918 119.297 144.131 119.635 144.46 119.783L144.598 119.815C144.32 118.808 144.763 117.822 145.504 117.12Z" fill="white"/>
<path d="M138.459 134.297C138.046 134.202 137.707 134.415 137.453 134.574C137.199 134.734 136.998 134.978 136.85 135.307C136.787 135.583 136.639 135.912 136.768 136.304C136.842 136.611 137.055 136.95 137.384 137.097L137.469 137.044C137.191 136.038 137.772 135.083 138.512 134.381L138.459 134.297Z" fill="white"/>
<path d="M130.507 153.224C130.093 153.129 129.786 153.204 129.532 153.364C129.193 153.576 129.045 153.905 128.845 154.15C128.782 154.425 128.687 154.839 128.847 155.093C128.837 155.453 129.134 155.739 129.463 155.887L129.601 155.918C129.238 154.965 129.766 153.925 130.507 153.224Z" fill="white"/>
<path d="M115.413 188.797C115.053 188.788 114.746 188.862 114.407 189.075C114.153 189.235 113.952 189.479 113.804 189.808C113.741 190.084 113.647 190.497 113.722 190.804C113.796 191.112 114.094 191.397 114.423 191.545C114.198 190.623 114.726 189.583 115.466 188.882L115.413 188.797Z" fill="white"/>
<path d="M107.884 207.459C107.524 207.449 107.217 207.524 106.963 207.683C106.624 207.896 106.423 208.14 106.275 208.469C106.212 208.745 106.202 209.105 106.277 209.413C106.352 209.72 106.565 210.059 106.894 210.206L106.978 210.153C106.669 209.285 107.197 208.245 107.938 207.543L107.884 207.459Z" fill="white"/>
<path d="M131.74 170.043L128.944 175.932L126.253 181.99C124.449 186.075 122.73 190.107 121.011 194.139C119.345 198.255 117.679 202.371 116.097 206.434L113.736 212.64L111.512 218.878L111.566 218.962L121.806 194.465L126.858 182.201C128.439 178.138 130.212 174.191 131.772 169.905L131.74 170.043Z" fill="white"/>
<path d="M100.675 166.643C103.135 166.987 105.605 166.972 108.043 167.094L111.679 167.054C112.929 166.977 114.18 166.901 115.346 166.877L115.07 166.814C116.457 167.518 117.854 168.175 119.261 168.787C120.669 169.399 122.115 169.947 123.6 170.432L115.365 166.156L115.312 166.071L100.622 166.558L100.675 166.643Z" fill="white"/>
<path d="M87.4504 198.799C89.9418 199.006 92.3269 199.043 94.7435 198.943C97.1601 198.842 99.6298 198.826 102.078 198.588L101.664 198.494C103.086 199.254 104.646 200.046 106.1 200.668C106.895 200.995 107.66 201.46 108.402 201.702C109.198 202.029 109.993 202.356 110.736 202.598L110.821 202.545L102.044 197.783L101.96 197.836L87.4819 198.661L87.4504 198.799Z" fill="white"/>
<path d="M75.4982 231.101L78.8897 230.861L82.2595 230.398C84.4319 230.097 86.689 229.742 88.8298 229.579C89.3596 229.482 89.9426 229.47 90.3877 229.427C90.8013 229.522 91.3528 229.648 91.8195 229.827C92.8063 230.27 93.6768 230.904 94.6635 231.347C95.5905 231.946 96.5353 232.573 97.4977 233.228C98.4812 233.791 99.4082 234.39 100.279 235.024L100.363 234.971C98.6538 233.565 96.8911 232.074 95.0653 230.859C94.1101 230.278 93.1017 229.612 92.1149 229.169C91.595 228.905 91.0435 228.779 90.4921 228.653C89.8559 228.58 89.3261 228.677 88.7431 228.688C84.2605 229.26 79.906 230.223 75.445 231.017L75.4982 231.101Z" fill="white"/>
<path d="M87.7221 106.526L92.9964 104.395C94.8182 103.723 96.4174 103.073 98.1762 102.677C99.8818 102.196 101.609 101.938 103.242 102.094C104.906 102.112 106.667 102.659 108.418 103.567L108.587 103.461C107.238 102.064 105.434 101.072 103.472 100.768C101.595 100.412 99.6769 100.554 97.7488 101.056C95.9053 101.505 94.052 102.315 92.3898 103.24C90.6816 104.156 89.0902 105.194 87.6157 106.356L87.7221 106.526Z" fill="white"/>
<path d="M83.1371 108.814C88.4192 105.379 93.8925 102.061 99.6315 99.1654C102.448 97.633 105.286 96.3233 108.315 95.1297C111.206 93.9046 114.257 92.9335 117.383 92.2697L117.414 92.1319C115.75 92.1142 114.16 92.4037 112.518 92.6086C110.936 92.9723 109.361 93.4103 107.793 93.9224C104.689 94.8087 101.682 96.2249 98.8122 97.6725C95.9958 99.2049 93.2326 100.822 90.5758 102.608C87.8802 104.458 85.3547 106.517 82.9992 108.783L83.1371 108.814Z" fill="#FFCF05"/>
<path d="M113.235 100.896C113.58 103.514 114.041 105.94 114.332 108.473C114.67 111.016 114.961 113.549 115.207 116.071C115.79 121.137 116.235 126.171 116.32 131.195C116.489 136.166 116.267 141.265 115.853 146.248C115.618 148.757 115.217 151.253 114.65 153.734C114.306 156.194 113.601 158.644 112.896 161.094L113.087 161.211C115.101 156.521 116.32 151.505 117.041 146.447C117.846 141.336 118.069 136.237 117.931 131.128C117.793 126.019 117.295 120.901 116.489 115.857C115.768 110.76 114.793 105.822 113.373 100.928L113.235 100.896Z" fill="#FFCF05"/>
<path d="M107.588 177.652C106.414 178.98 105.432 180.423 104.502 181.952C103.657 183.427 102.865 184.987 102.212 186.578C101.558 188.169 100.904 189.761 100.388 191.384C99.9252 193.091 99.5471 194.746 99.36 196.516L99.5511 196.632L103.803 187.232L107.779 177.768L107.588 177.652Z" fill="#FFCF05"/>
<path d="M109.854 221.69C109.494 221.681 109.186 221.755 108.932 221.915C108.594 222.128 108.393 222.372 108.245 222.701C108.182 222.977 108.034 223.306 108.162 223.697C108.237 224.005 108.535 224.29 108.863 224.438L108.948 224.385C108.586 223.432 109.167 222.476 109.907 221.775L109.854 221.69Z" fill="white"/>
<path d="M134.082 164.558C133.668 164.464 133.414 164.623 133.107 164.698C132.853 164.858 132.705 165.187 132.504 165.431C132.41 165.845 132.347 166.12 132.421 166.427C132.549 166.819 132.709 167.073 133.091 167.306L133.176 167.253C132.898 166.246 133.341 165.26 134.135 164.643L134.082 164.558Z" fill="white"/>
<path d="M194.288 93.4536C195.115 93.6427 195.679 94.3517 195.49 95.1789C195.385 95.9529 194.538 96.4847 193.764 96.3803C192.937 96.1913 192.459 95.4291 192.563 94.6551C192.752 93.8279 193.514 93.3493 194.288 93.4536Z" fill="#8753A4"/>
<path d="M180.993 127.19C181.767 127.294 182.245 128.056 182.141 128.83C181.952 129.657 181.243 130.221 180.416 130.032C179.642 129.927 179.025 129.134 179.214 128.306C179.319 127.532 180.166 127.001 180.993 127.19Z" fill="#8753A4"/>
<path d="M165.275 163.273C165.464 162.446 166.173 161.883 167 162.072C167.774 162.176 168.306 163.023 168.202 163.797C168.013 164.624 167.25 165.103 166.476 164.999C165.649 164.81 165.171 164.047 165.275 163.273Z" fill="#8753A4"/>
<path d="M172.831 107.046C172.248 107.058 171.846 107.546 171.582 108.066C171.318 108.586 171.436 109.338 171.871 109.655C171.934 109.38 172.051 109.189 172.029 108.966C172.145 108.775 172.261 108.584 172.378 108.393C172.472 107.979 172.705 107.597 172.831 107.046Z" fill="white"/>
<path d="M192.929 67.0305C192.399 67.1271 191.944 67.5308 191.68 68.0508C191.416 68.5707 191.534 69.3231 192.023 69.7249C192.086 69.4491 192.149 69.1734 192.18 69.0355C192.296 68.8445 192.359 68.5687 192.476 68.3777C192.57 67.9641 192.802 67.582 192.929 67.0305Z" fill="white"/>
<path d="M192.942 53.3247C192.359 53.3366 191.873 53.8782 191.609 54.3981C191.43 54.8649 191.463 55.6705 191.951 56.0722C192.099 55.7433 192.078 55.5208 192.194 55.3297C192.257 55.054 192.288 54.9161 192.404 54.7251C192.584 54.2583 192.731 53.9294 192.942 53.3247Z" fill="white"/>
<path d="M69.0344 237.168C68.9222 239.245 69.0109 241.079 69.1527 242.997C69.3405 244.926 69.6307 246.83 70.0234 248.709C70.7837 252.364 71.9891 255.976 73.8405 259.301C72.4657 255.795 71.8433 252.171 71.6659 248.504C71.57 246.596 71.5838 244.738 71.7072 242.928C71.8095 241.211 72.0281 239.303 72.4062 237.648L69.0344 237.168Z" fill="#65391F"/>
<path d="M191.3 58.6071L186.868 68.4744L182.49 78.4265L173.819 98.2774L165.477 118.276L161.237 128.26L157.134 138.275L191.3 58.6071Z" fill="white"/>
<path d="M171.779 111.012L167.612 120.36L163.444 129.707L155.248 148.433L147.274 167.138L143.244 176.517L139.406 186.012L171.832 111.097L171.779 111.012Z" fill="white"/>
<path d="M191.973 71.5271L185.939 85.2351L179.905 98.943L168.027 126.475L156.426 154.07L150.582 167.894L144.877 181.75L191.973 71.5271Z" fill="white"/>
<path d="M194.003 93.751C193.706 93.7799 193.445 93.8652 193.219 94.007C192.965 94.1666 192.848 94.3576 192.754 94.7712C192.776 94.9938 192.766 95.3542 192.957 95.4704C193.063 95.6398 193.134 95.7527 193.17 95.8091L193.552 96.0415C193.286 95.6181 193.158 95.2262 193.199 94.7279C193.209 94.3675 193.579 94.0169 194.003 93.751Z" fill="white"/>
<path d="M181.121 127.582C180.845 127.519 180.605 127.512 180.4 127.562C180.139 127.647 179.885 127.807 179.638 128.041C179.575 128.316 179.512 128.592 179.587 128.899C179.608 129.122 179.768 129.376 180.012 129.577C179.831 129.1 179.787 128.655 180.02 128.273C180.252 127.891 180.729 127.71 181.121 127.582Z" fill="white"/>
<path d="M166.661 162.285C166.386 162.222 166.135 162.261 165.909 162.403C165.74 162.509 165.577 162.69 165.423 162.945C165.36 163.22 165.297 163.496 165.456 163.75C165.562 163.92 165.807 164.12 165.998 164.237C165.785 163.898 165.657 163.506 165.889 163.124C165.984 162.71 166.323 162.498 166.63 162.423L166.661 162.285Z" fill="white"/>
<path d="M171.664 146.745C171.058 147.912 170.471 149.108 169.901 150.332C169.342 151.509 168.835 152.772 168.276 153.95C167.77 155.212 167.264 156.475 166.842 157.684C166.364 158.929 165.95 160.212 165.6 161.534L171.664 146.745Z" fill="white"/>
<path d="M193.225 96.8371L191.653 100.54L190.081 104.243L187.076 111.68L184.262 119.233L182.828 122.967L181.448 126.786L181.585 126.817L193.278 96.9218L193.225 96.8371Z" fill="white"/>
<path d="M201.216 76.4684C200.534 77.763 199.915 79.0964 199.359 80.4685C198.822 81.8689 198.231 83.1845 197.693 84.5848C197.156 85.9852 196.618 87.3855 196.165 88.7327C195.701 90.1258 195.256 91.5471 194.828 92.9967L201.216 76.4684Z" fill="white"/>
<path fill-rule="evenodd" clip-rule="evenodd" d="M93.8196 273.442C96.0648 272.504 98.2135 271.037 99.8206 269.083L100.91 267.809L95.456 265.329C95.498 265.145 95.54 264.962 95.5821 264.778C96.4308 260.112 93.2519 255.614 88.5861 254.765C85.3837 254.178 82.1005 255.531 80.1449 258.058L73.0565 254.48L72.8163 256.166C71.17 264.638 76.7734 272.81 85.1931 274.371C88.1198 274.895 91.0977 274.56 93.8196 273.442ZM96.7245 268.666C93.7939 271.332 89.5989 272.55 85.6224 271.858C79.2175 270.685 74.6895 264.79 75.0891 258.281L81.1061 261.469L81.7186 260.376C82.8904 258.105 85.5905 256.764 88.1568 257.278C91.4971 257.896 93.6873 261.008 93.0689 264.348C93.0204 264.773 92.9081 265.158 92.7322 265.505L92.2576 266.629L96.7245 268.666Z" fill="#DCBECC"/>
<path d="M241.729 55.9886C242.956 59.8232 244.628 63.6144 246.84 66.9488C247.957 68.7272 249.274 70.2614 250.761 71.6893C252.248 73.1172 254.021 74.2476 255.92 74.8266L255.951 74.6887C254.263 73.5051 252.914 72.1088 251.65 70.6592C250.431 69.2202 249.28 67.6998 248.195 66.0979C247.185 64.4888 246.121 62.7951 245.057 61.1013C244.079 59.3544 243.015 57.6606 241.814 55.9354L241.729 55.9886Z" fill="white"/>
<path d="M228.294 38.9189C231.359 39.4743 234.002 41.2389 236.423 43.0252C238.812 44.9494 241.053 47.2024 242.987 49.5304C247.047 54.3024 250.428 59.4998 253.387 64.9632L253.471 64.91C253.097 63.3738 252.416 61.9125 251.872 60.4826C251.19 59.0212 250.47 57.6235 249.711 56.2895C248.179 53.4732 246.308 50.8695 244.321 48.4569C242.249 46.0975 239.954 43.7597 237.226 42.0483C234.668 40.2305 231.517 38.7849 228.326 38.7811L228.294 38.9189Z" fill="#8753A4"/>
<path d="M257.341 60.3546C257.044 60.069 256.514 60.1655 256.122 60.2935C255.699 60.5594 255.413 60.8568 255.234 61.3236C255.086 61.6525 255.045 62.1508 255.226 62.6274C255.439 62.9662 255.736 63.2517 256.15 63.3463C255.809 62.6156 255.85 62.1173 256.03 61.6505C256.149 61.3393 256.304 61.0846 256.494 60.8863C256.695 60.6421 256.949 60.4826 257.341 60.3546Z" fill="white"/>
</g>
</svg>
