<svg width="250" height="300" viewBox="0 0 250 300" fill="none" xmlns="http://www.w3.org/2000/svg">
<g opacity="0.2">
<path d="M202.09 263.768C202.686 266.567 200.99 269.437 198.461 270.343L196.158 271.22C195.551 266.58 193.872 262.541 193.872 262.541C193.872 262.541 197.261 261.177 201.463 260.742L202.09 263.768Z" fill="#000010"/>
<path d="M168.753 94.3191L201.463 260.742C197.261 261.177 193.872 262.541 193.872 262.541C193.872 262.541 189.879 257.538 187.265 256.039L187.117 254.907L158.109 104.46L157.946 103.215C159.824 99.9765 160.939 94.4206 160.939 94.4206C160.939 94.4206 164.659 93.8188 168.753 94.3191Z" fill="#8753A4"/>
<path d="M193.872 262.541C193.872 262.541 195.551 266.58 196.158 271.22L195.72 271.393L180.449 276.959L75.9643 315.033C76.8136 310.087 74.5629 305.202 74.5629 305.202C74.5629 305.202 79.6481 298.321 81.8744 291.584L187.379 256.024C189.879 257.539 193.872 262.541 193.872 262.541Z" fill="#8753A4"/>
<path d="M195.72 271.392L195.874 273.444C196.111 275.255 192.554 277.102 188.027 277.694C184.858 278.109 181.94 277.8 180.449 276.959L195.72 271.392Z" fill="#020711"/>
<path d="M167.919 89.7087L168.753 94.319C164.659 93.8188 160.939 94.4206 160.939 94.4206C160.939 94.4206 160.745 90.3021 158.825 86.1794L158.81 86.0662L162.175 85.3956C164.778 85.055 167.338 87.0223 167.919 89.7087Z" fill="#000010"/>
<path d="M166.292 79.9073C166.745 82.4954 164.876 84.9269 162.175 85.3955L158.81 86.066L157.904 86.1845C157.75 81.4853 156.863 77.3425 156.863 77.3425C156.863 77.3425 161.202 76.1992 165.562 76.0891L166.292 79.9073Z" fill="#000010"/>
<path d="M155.261 22.8766L165.562 76.0893C161.202 76.1993 156.863 77.3426 156.863 77.3426L153.953 61.2631L146.95 22.6978C146.95 22.6978 151.078 21.6973 155.261 22.8766Z" fill="#8753A4"/>
<path d="M187.117 254.907L187.379 256.024L81.8744 291.583L81.5391 289.901C81.5391 289.901 83.556 288.601 87.2018 287.433L184.765 254.524L187.117 254.907Z" fill="#FFFEFF"/>
<path d="M154.315 18.2812L155.261 22.8767C151.078 21.6975 146.95 22.698 146.95 22.698C146.95 22.698 146.643 18.5943 144.836 14.4568L148.359 14.1109C151.203 13.8539 153.861 15.6932 154.315 18.2812Z" fill="#000010"/>
<path d="M170.377 179.746L184.765 254.524L87.2018 287.433L70.6884 202.573L76.1744 201.395C81.999 234.474 105.175 259.413 129.685 257.587C156.034 255.751 173.76 224.08 168.451 187.019C168.079 184.766 167.67 182.517 167.223 180.274L170.377 179.746Z" fill="#182333"/>
<path d="M158.825 86.1791C160.745 90.3019 160.939 94.4204 160.939 94.4204C160.939 94.4204 159.824 99.9762 157.946 103.215L49.2474 124.919C45.4176 121.161 37.1446 117.755 37.1446 117.755C37.921 114.891 36.2012 108.785 34.3947 107.294L157.904 86.1844L158.81 86.066L158.825 86.1791Z" fill="#E679BB"/>
<path d="M156.092 105.759L170.377 179.746L167.223 180.273C159.868 146.934 135.472 124.112 111.274 128.314C86.3817 132.492 70.9041 163.754 75.6467 198.241C75.7849 199.297 75.9608 200.349 76.1745 201.395L70.6884 202.573L55.8662 126.24L156.092 105.759Z" fill="#182333"/>
<path d="M156.863 77.3427C156.863 77.3427 157.75 81.4855 157.904 86.1847L34.3947 107.295C35.2292 102.236 33.0916 97.3359 33.0916 97.3359L156.863 77.3427Z" fill="#0B0E19"/>
<path fill-rule="evenodd" clip-rule="evenodd" d="M153.953 61.2629L156.863 77.3424L33.0917 97.3356L29.2259 77.4675L153.84 61.2777L153.953 61.2629ZM130.044 73.83C131.5 73.5243 132.356 72.1462 132.05 70.6898C131.759 69.3466 130.268 68.5057 128.812 68.8114L126.081 69.0536C124.511 69.3741 123.557 70.8802 123.735 72.2382C123.735 72.2382 123.73 72.2005 123.72 72.1251C123.301 70.6835 121.923 69.8278 120.481 70.2467L117.751 70.4889C116.181 70.8094 115.212 72.2023 115.277 73.5751C115.267 73.4997 115.257 73.4242 115.247 73.3488C114.941 71.8924 113.45 71.0516 111.881 71.372L109.037 71.6291C107.354 71.9643 106.316 73.7116 106.652 75.3943C107.085 76.9491 108.719 78.0014 110.515 77.6513L113.142 76.6169C114.471 76.2129 115.469 75.0463 115.292 73.6883C115.306 73.8015 115.321 73.9146 115.336 74.0278C115.77 75.5826 117.404 76.6349 119.072 76.1865L121.6 75.28C122.929 74.876 123.814 73.7242 123.75 72.3514C123.759 72.4268 123.774 72.54 123.794 72.6909C124.114 74.2605 125.734 75.1997 127.416 74.8644L130.044 73.83ZM104.36 78.1114C105.929 77.791 106.883 76.2849 106.578 74.8285C106.257 73.2589 104.653 72.4329 103.083 72.7534L100.239 73.0104C98.4579 73.4736 97.2924 75.1225 97.7556 76.9036C98.0909 78.5863 99.8381 79.6239 101.619 79.1606L104.36 78.1114ZM95.2374 79.6503C96.8069 79.3299 97.7461 77.7106 97.4404 76.2542C97.12 74.6846 95.5007 73.7455 93.9459 74.1791L90.9887 74.4509C89.1928 74.801 88.1257 76.3219 88.3478 78.0195C88.328 77.8686 88.3132 77.7554 88.3034 77.68C87.8697 76.1252 86.3636 75.1712 84.6957 75.6196L81.7385 75.8915C79.8294 76.2564 78.6787 78.0184 79.142 79.7995C79.4921 81.5954 81.3673 82.7313 83.1484 82.2681L86.0019 81.2041C87.5567 80.7704 88.5255 79.3775 88.3478 78.0195C88.3626 78.1326 88.3774 78.2458 88.3922 78.359C88.8407 80.0269 90.6027 81.1776 92.3838 80.7144L95.2374 79.6503ZM59.3152 88.3793L57.2485 76.1031L50.8127 77.0603L52.781 89.4644L59.3152 88.3793ZM49.7254 89.8642L47.7571 77.4601L40.9818 78.4617L43.0781 90.9642L49.7254 89.8642Z" fill="#8753A4"/>
<path d="M146.95 22.6979L153.953 61.2632L153.84 61.278L29.2259 77.4678L21.1834 35.3552L146.95 22.6979Z" fill="#182333"/>
<path d="M157.946 103.215L158.109 104.46C157.164 105.159 156.092 105.76 156.092 105.76L55.8662 126.24C51.2707 127.187 49.8387 126.799 49.5975 126.715L49.2474 124.919L157.946 103.215Z" fill="#FFFEFF"/>
<path d="M144.836 14.4566C146.643 18.5942 146.95 22.6979 146.95 22.6979L21.1834 35.3552C21.8317 32.3927 20.3288 27.0642 18.5223 25.574L144.836 14.4566Z" fill="#E679BB"/>
<path fill-rule="evenodd" clip-rule="evenodd" d="M168.451 187.019C173.76 224.079 156.034 255.751 129.685 257.587C105.176 259.413 81.9991 234.474 76.1745 201.395C75.9608 200.349 75.7849 199.297 75.6467 198.241C70.9041 163.754 86.3817 132.492 111.274 128.314C135.472 124.112 159.868 146.934 167.223 180.273C167.67 182.517 168.079 184.766 168.451 187.019ZM128.979 253.075C152.455 251.27 168.071 221.946 163.117 187.602C158.305 153.469 134.947 128.9 111.866 132.841C89.6752 136.55 75.7418 165.538 80.2866 197.634C84.8462 229.843 106.409 254.762 128.979 253.075Z" fill="#E679BB"/>
<path fill-rule="evenodd" clip-rule="evenodd" d="M163.117 187.602C168.071 221.946 152.455 251.27 128.979 253.075C106.409 254.762 84.8463 229.843 80.2867 197.634C75.7418 165.538 89.6753 136.55 111.866 132.841C134.947 128.9 158.306 153.469 163.117 187.602ZM116.527 209.813C123.559 209.008 128.373 201.817 127.307 193.669C126.142 185.649 119.399 179.855 112.382 180.773C105.479 181.676 100.778 188.852 101.927 196.759C102.964 204.681 109.481 210.505 116.527 209.813Z" fill="#0D101B"/>
<path d="M132.05 70.69C132.469 72.1316 131.5 73.5245 130.044 73.8302C128.602 74.249 127.096 73.295 126.805 71.9518C126.514 70.6086 127.468 69.1025 128.811 68.8116C130.381 68.4911 131.759 69.3468 132.05 70.69Z" fill="#C78450"/>
<path d="M130.044 73.8302L127.53 74.8497C125.847 75.185 124.228 74.2458 123.794 72.6911C123.774 72.5402 123.759 72.427 123.75 72.3516C123.75 72.3516 123.745 72.3139 123.735 72.2384C123.67 70.8656 124.624 69.3595 126.194 69.039L128.812 68.8116C127.468 69.1025 126.514 70.6086 126.805 71.9518C127.096 73.295 128.602 74.249 130.044 73.8302Z" fill="#1A0B05"/>
<path d="M123.72 72.1251C123.73 72.2006 123.735 72.2383 123.735 72.2383C123.745 72.3138 123.75 72.3515 123.75 72.3515C123.814 73.7243 123.042 74.8613 121.714 75.2653C120.144 75.5858 118.766 74.7302 118.46 73.2738C118.169 71.9305 119.025 70.5524 120.481 70.2468C121.923 69.8279 123.414 70.6687 123.72 72.1251Z" fill="#C78450"/>
<path d="M121.714 75.2653L119.072 76.1865C117.404 76.635 115.77 75.5826 115.449 74.0131C115.434 73.8999 115.306 73.8015 115.292 73.6884C115.292 73.6884 115.287 73.6506 115.277 73.5752C115.212 72.2024 116.294 70.7946 117.751 70.4889L120.481 70.2467C119.025 70.5524 118.169 71.9305 118.46 73.2737C118.766 74.7301 120.144 75.5858 121.714 75.2653Z" fill="#1A0B05"/>
<path d="M115.247 73.349C115.257 73.4244 115.267 73.4999 115.277 73.5753C115.287 73.6508 115.292 73.6885 115.292 73.6885C115.469 75.0465 114.584 76.1983 113.142 76.6171C111.686 76.9228 110.195 76.082 109.776 74.6404C109.47 73.184 110.424 71.6779 111.994 71.3574C113.45 71.0517 114.941 71.8926 115.247 73.349Z" fill="#C78450"/>
<path d="M113.142 76.6171L110.515 77.6515C108.832 77.9867 107.085 76.9492 106.765 75.3796C106.316 73.7117 107.467 71.9497 109.15 71.6144L111.994 71.3574C110.424 71.6778 109.47 73.1839 109.776 74.6403C110.195 76.0819 111.686 76.9227 113.142 76.6171Z" fill="#1A0B05"/>
<path d="M127.307 193.669C128.373 201.817 123.559 209.008 116.527 209.813C109.481 210.504 102.964 204.681 101.927 196.759C100.778 188.852 105.479 181.676 112.382 180.773C119.399 179.855 126.142 185.648 127.307 193.669Z" fill="#536882"/>
<path d="M106.464 74.8435C106.898 76.3983 105.929 77.7912 104.374 78.2248C102.805 78.5453 101.2 77.7193 100.88 76.1497C100.574 74.6933 101.528 73.1872 103.098 72.8668C104.653 72.4331 106.159 73.3871 106.464 74.8435Z" fill="#C78450"/>
<path d="M104.374 78.2247L101.634 79.2739C99.8381 79.624 98.0908 78.5865 97.6424 76.9186C97.3071 75.2358 98.3447 73.4886 100.254 73.1237L103.098 72.8667C101.528 73.1871 100.574 74.6932 100.88 76.1496C101.2 77.7192 102.805 78.5452 104.374 78.2247Z" fill="#1A0B05"/>
<path d="M97.3272 76.2692C97.7608 77.8239 96.6937 79.3448 95.1241 79.6653C93.5693 80.099 91.9501 79.1598 91.6296 77.5902C91.3239 76.1338 92.2779 74.6277 93.8327 74.1941C95.4022 73.8736 97.0067 74.6996 97.3272 76.2692Z" fill="#C78450"/>
<path d="M95.1242 79.6653L92.3838 80.7145C90.4895 81.1926 88.7423 80.155 88.279 78.374C88.2642 78.2608 88.2494 78.1476 88.2346 78.0344C88.0273 76.4501 89.2077 74.9144 90.8756 74.4659L93.8328 74.1941C92.278 74.6277 91.324 76.1338 91.6297 77.5902C91.9502 79.1598 93.5694 80.099 95.1242 79.6653Z" fill="#1A0B05"/>
<path d="M88.2049 77.8082C88.2148 77.8836 88.2246 77.959 88.2345 78.0345C88.427 79.5057 87.4582 80.8986 85.8887 81.2191C84.3339 81.6527 82.7146 80.7135 82.3942 79.144C81.9605 77.5892 83.0129 75.9552 84.5824 75.6347C86.2652 75.2994 87.8844 76.2386 88.2049 77.8082Z" fill="#C78450"/>
<path d="M85.8887 81.2191L83.1631 82.3815C81.2541 82.7464 79.5068 81.7088 79.0436 79.9277C78.5803 78.1466 79.8442 76.3698 81.6253 75.9065L84.5825 75.6347C83.0129 75.9552 81.9606 77.5892 82.3942 79.144C82.7147 80.7135 84.334 81.6527 85.8887 81.2191Z" fill="#1A0B05"/>
<path d="M70.6884 202.573L87.2018 287.433C83.5561 288.601 81.5391 289.901 81.5391 289.901L49.5975 126.715C49.8386 126.799 51.2707 127.187 55.8662 126.24L70.6884 202.573Z" fill="#0B0E19"/>
<path d="M57.1501 76.2312L59.0888 88.409L52.6678 89.4794L50.7142 77.1884L57.1501 76.2312Z" fill="#0F161D"/>
<path d="M49.5975 126.715L81.5391 289.901L81.8744 291.583C79.648 298.321 74.5628 305.202 74.5628 305.202C74.5628 305.202 68.7172 305.391 64.5649 307.086L28.0277 120.214C32.6031 118.234 37.1446 117.755 37.1446 117.755C37.1446 117.755 45.4176 121.162 49.2474 124.919L49.5975 126.715Z" fill="#E679BB"/>
<path d="M47.5455 77.603L49.5138 90.0072L42.8665 91.1072L40.7702 78.6046L47.5455 77.603Z" fill="#B70018"/>
<path d="M23.1921 99.0914L24.1239 103.574C24.6221 106.501 27.9738 108.365 31.4672 107.793C28.2297 108.562 26.2773 111.234 26.7903 114.275L28.0277 120.214L64.5649 307.085L64.639 307.651L55.7928 310.42L0.0715637 29.7146L11.049 28.2783C10.3752 29.2873 10.0706 30.4782 10.3467 31.7082L11.5006 37.8881L23.1921 99.0914Z" fill="#000010"/>
<path d="M34.3948 107.295C36.2013 108.785 37.921 114.891 37.1447 117.755C37.1447 117.755 32.6031 118.234 28.0277 120.214L26.7903 114.275C26.2773 111.234 28.2297 108.562 31.4672 107.793C31.6837 107.688 31.8673 107.625 32.0182 107.606L34.3948 107.295Z" fill="#000010"/>
<path d="M33.0917 97.3356C33.0917 97.3356 35.2292 102.236 34.3947 107.294L32.0182 107.605C31.8673 107.625 31.6836 107.688 31.4671 107.793C27.9737 108.365 24.622 106.501 24.1238 103.574L23.192 99.0914C27.3592 97.5101 33.0917 97.3356 33.0917 97.3356Z" fill="#000010"/>
<path d="M29.2259 77.4678L33.0917 97.3358C33.0917 97.3358 27.3592 97.5103 23.1921 99.0916L11.5006 37.8883C16.076 35.9083 21.1834 35.3552 21.1834 35.3552L29.2259 77.4678Z" fill="#E679BB"/>
<path d="M18.5224 25.5741C20.3288 27.0643 21.8318 32.3928 21.1834 35.3553C21.1834 35.3553 16.076 35.9085 11.5006 37.8884L10.3467 31.7085C10.0706 30.4785 10.3752 29.2876 11.049 28.2786C12.0326 26.9988 13.6265 25.9845 15.6783 25.8311L18.5224 25.5741Z" fill="#000010"/>
<path d="M14.0206 284.117L32.463 295.747C31.125 296.958 28.4978 297.992 25.4423 298.392C20.9155 298.984 16.9884 298.002 16.7515 296.191L14.0206 284.117Z" fill="#020711"/>
<path d="M-30.6754 71.8381C-28.5713 83.2269 -26.4246 94.6485 -24.2352 106.103C-19.0104 103.808 -13.7807 101.55 -8.546 99.3307C-11.5963 84.2288 -14.6417 69.1647 -17.6822 54.1382C-22.0559 60.0054 -26.387 65.9053 -30.6754 71.8381ZM-17.6822 54.1382C-14.6417 69.1647 -11.5963 84.2288 -8.546 99.3307C-1.64517 96.3559 5.21795 93.3859 12.0433 90.421C8.09541 70.2184 4.10482 49.983 0.0715785 29.7148C-5.84633 37.8559 -11.7642 45.9971 -17.6822 54.1382ZM-24.2352 106.103C-21.0234 123.025 -17.8067 139.986 -14.5851 156.983C-8.63751 157.28 -2.65717 157.533 3.35594 157.744C-0.568714 138.306 -4.53603 118.835 -8.546 99.3307C-13.7807 101.55 -19.0104 103.808 -24.2352 106.103ZM-8.546 99.3307C-4.53603 118.835 -0.568714 138.306 3.35594 157.744C10.7666 158.079 18.2199 158.446 25.7158 158.847C21.196 136.033 16.6386 113.225 12.0433 90.421C5.21795 93.3859 -1.64517 96.3559 -8.546 99.3307ZM-14.5851 156.983C-10.5744 178.252 -6.55874 199.559 -2.53819 220.903C4.09896 222.95 10.7788 225.031 17.5012 227.144C12.7911 204.048 8.07597 180.915 3.35594 157.744C-2.65717 157.533 -8.63751 157.28 -14.5851 156.983ZM3.35594 157.744C8.07597 180.915 12.7911 204.048 17.5012 227.144C25.2637 229.581 32.9885 232.024 40.6755 234.471C35.6889 209.263 30.7024 184.055 25.7158 158.847C18.2199 158.446 10.7666 158.079 3.35594 157.744ZM-2.53819 220.903C1.21936 240.823 4.98185 260.782 8.74927 280.778C10.5015 281.853 12.2586 282.966 14.0206 284.117C19.7891 287.736 25.5198 291.36 31.2128 294.989C26.6374 272.336 22.0668 249.721 17.5012 227.144C10.7788 225.031 4.09896 222.95 -2.53819 220.903ZM17.5012 227.144C22.0668 249.721 26.6374 272.336 31.2128 294.989C31.6296 295.242 32.0463 295.494 32.463 295.747C38.2314 299.366 44.0426 303.018 49.8963 306.703C51.9045 307.975 53.87 309.214 55.7928 310.42C50.7963 285.137 45.7573 259.82 40.6755 234.471C32.9885 232.024 25.2637 229.581 17.5012 227.144Z" fill="url(#paint0_linear_23_23)"/>
<path d="M118.093 127.652C125.071 127.315 132.02 129.398 138.226 132.845C144.447 136.405 149.798 141.23 154.302 146.626C163.243 157.773 168.474 171.362 170.876 185.321C172.938 199.324 172.201 213.924 167.025 227.148C164.331 233.831 160.771 240.052 155.931 245.29C150.949 250.316 144.927 254.442 138.128 256.137L137.97 255.812C144.469 253.581 150.25 249.371 154.637 244.193C159.137 239 162.471 232.808 164.741 226.411C169.381 213.487 170.178 199.34 167.948 185.819C165.832 172.283 160.758 159.019 152.428 148.138C148.263 142.697 143.252 137.828 137.37 134.223C131.587 130.491 124.948 128.137 118.025 128.007L118.093 127.652Z" fill="#07101C"/>
<path d="M16.7516 296.191C15.6904 292.186 14.7424 288.166 13.9075 284.131L14.1338 284.102C14.8181 284.933 15.2909 285.907 15.7637 286.881C16.1233 287.87 16.3697 288.874 16.7293 289.863C16.8626 290.881 17.109 291.885 17.1291 292.918C17.1492 293.952 17.1693 294.985 16.8647 296.176L16.7516 296.191Z" fill="#58414E"/>
<path d="M125.363 205.204L157.687 230.557C157.687 230.557 153.166 244.386 138.564 250.67L119.47 209.428C119.47 209.428 121.743 208.325 125.363 205.204Z" fill="#292B35"/>
<path d="M111.024 180.951L117.342 132.47C117.342 132.47 107.737 131.194 96.4083 140.504L105.185 184.707C105.185 184.707 107.575 181.862 111.024 180.951Z" fill="#292B35"/>
<path d="M116.409 208.908C113.014 209.352 109.608 207.956 107.117 205.634C104.641 203.426 102.952 200.194 102.508 196.799C101.965 193.532 102.653 189.988 104.335 187.006C106.144 184.122 109.091 182.009 112.486 181.565L112.53 181.905C109.382 183.353 107.498 185.671 106.338 188.24C105.291 190.794 104.982 193.712 105.45 196.414C105.806 199.13 106.953 201.742 108.735 203.926C110.518 206.11 112.934 207.866 116.379 208.681L116.409 208.908Z" fill="#9CAEBA"/>
<path d="M114.788 180.689L135.512 138.495C135.512 138.495 159.708 153.631 163.65 191.676L127.058 199.687C127.058 199.687 130.324 184.181 114.788 180.689Z" fill="#292B35"/>
<path d="M34.3652 107.068C39.4673 105.595 44.5006 104.476 49.6324 103.229L64.9588 99.8425C75.1536 97.7028 85.4075 96.0158 95.7451 94.0877C106.014 92.5139 116.253 90.7137 126.665 89.3514L142.183 87.436C147.419 86.9812 152.625 86.3 157.89 86.0716L157.919 86.2979L96.2432 97.0153L34.4096 107.408L34.3652 107.068Z" fill="#242A3F"/>
<path d="M158.825 86.1794C153.723 87.6527 148.576 88.7865 143.557 90.0187L128.118 93.4202C117.81 95.5746 107.443 97.2764 97.12 99.3177C86.6101 100.808 76.2578 102.623 65.8463 103.985L50.2141 105.916C44.9935 106.484 39.6598 107.066 34.4096 107.408L34.3652 107.068L96.6219 96.3902L158.78 85.8399L158.825 86.1794Z" fill="#ACECC8"/>
<path d="M23.4333 99.1751C24.7279 100.272 25.4714 101.556 26.1018 102.855C26.2149 102.84 26.5597 103.716 26.5301 103.489C26.6581 103.588 26.8009 103.799 26.914 103.784C27.1799 104.056 27.4785 104.286 27.8099 104.473C28.4498 104.965 29.188 105.328 30.2658 105.648C30.7629 105.928 31.3583 106.08 32.0669 106.218C32.9035 106.454 33.6122 106.591 34.3652 107.068L34.4097 107.408C33.0516 107.586 31.7232 107.99 30.2372 108.069C28.8644 108.133 27.3191 107.76 26.069 107.003C24.9172 106.118 24.0457 104.735 23.868 103.377L23.0938 99.2195L23.4333 99.1751Z" fill="#2F2F3F"/>
<path d="M11.6138 37.8735C15.5493 47.7182 18.0137 57.7553 20.0402 67.9649C20.9477 73.141 21.8404 78.204 22.4083 83.4246L23.2037 91.2629C23.2048 93.9102 23.4322 96.5279 23.4332 99.1752L23.0937 99.2196L17.0143 68.591L11.2743 37.918L11.6138 37.8735Z" fill="#859BAA"/>
<path d="M144.851 14.5698C139.576 15.6053 134.385 16.3996 129.194 17.1939L113.479 19.3653C102.939 20.6292 92.4683 21.5388 81.914 22.6896C71.4136 23.3729 60.8444 24.4105 50.3144 24.8674L34.5194 25.5528C29.2248 25.5549 23.8466 25.7982 18.5372 25.6872L18.4928 25.3477L81.6421 19.7324L144.821 14.3435L144.851 14.5698Z" fill="#859BAA"/>
<path d="M155.148 22.8914C154.419 21.7206 153.902 20.407 153.385 19.0934C153.07 18.444 153.011 17.9913 152.725 17.5683C152.515 17.1353 152.197 16.7549 151.77 16.4271C150.987 15.7237 149.91 15.4043 148.847 15.1981C147.67 15.0066 146.17 14.9728 144.851 14.5698L144.821 14.3435L148.812 14.0516C150.184 13.9871 151.631 14.4884 152.655 15.2753C153.807 16.1605 154.452 17.5725 154.517 18.9453L155.261 22.8766L155.148 22.8914Z" fill="#2F2F3F"/>
<path d="M165.449 76.1042L163.557 69.5605L161.891 62.9872C160.861 58.6328 160.042 54.1357 159.012 49.7813C158.306 45.2694 157.389 40.9002 156.797 36.3734L155.81 29.7113L155.148 22.8915L155.261 22.8767C158.808 40.5995 162.242 58.337 165.562 76.0894L165.449 76.1042Z" fill="#76828C"/>
<path d="M157.89 86.0716C159.06 85.3428 160.389 84.9388 161.589 84.4364C161.816 84.4068 161.929 84.392 162.027 84.264C162.14 84.2492 162.367 84.2196 162.48 84.2048C162.691 84.062 162.918 84.0324 163.129 83.8896C163.552 83.604 163.89 83.2529 164.142 82.8362C164.861 82.1667 165.195 81.2021 165.175 80.1688C165.238 78.8943 165.174 77.5215 165.449 76.1042L165.562 76.0894L166.42 80.0059C166.597 81.3639 166.209 82.796 165.309 83.8346C164.409 84.8732 163.11 85.5036 161.865 85.6665L157.919 86.2979L157.89 86.0716Z" fill="#2F2F3F"/>
<path d="M33.0918 97.3358C31.8702 94.1575 31.0865 90.8069 30.4307 87.5546C29.7602 84.1891 29.3307 80.9072 29.226 77.4677C30.4476 80.646 31.2165 83.8835 31.8871 87.2489C32.5577 90.6144 32.9871 93.8963 33.0918 97.3358Z" fill="#6D482A"/>
<path d="M156.877 77.4559L33.1066 97.4491L33.0769 97.2227L48.4478 94.1756L63.8335 91.2416C74.1858 89.4267 84.4398 87.7397 94.8069 86.0379C105.076 84.4641 115.443 82.7623 125.84 81.2868L141.329 79.145L156.848 77.2296L156.877 77.4559Z" fill="black"/>
<path d="M153.938 61.1501C154.746 63.8069 155.328 66.4934 155.797 69.1946C156.265 71.8959 156.734 74.5971 156.863 77.3428C156.055 74.686 155.586 71.9847 155.118 69.2835C154.649 66.5822 154.18 63.881 153.938 61.1501Z" fill="#6D482A"/>
<path d="M201.35 260.757C199.428 253.987 197.846 247.172 196.038 240.387L191.276 219.831C188.21 206.074 185.483 192.272 182.658 178.599C180.158 164.768 177.318 150.982 175.044 137.121L171.739 116.259C170.707 109.257 169.691 102.369 168.886 95.3374L169.113 95.3078L185.571 177.988L201.69 260.712L201.35 260.757Z" fill="#627682"/>
<path d="M196.143 271.107C196.552 270.708 197.088 270.408 197.496 270.009C197.708 269.866 198.032 269.709 198.244 269.566C198.455 269.423 198.652 269.167 198.751 269.039C199.469 268.37 200.074 267.715 200.423 266.864C200.9 266.111 201.008 265.176 201.115 264.241C201.095 263.207 201.159 261.933 201.463 260.742L201.577 260.727L202.247 264.093C202.395 265.224 202.204 266.4 201.771 267.493C201.225 268.6 200.424 269.511 199.351 270.112C198.377 270.585 197.26 270.846 196.173 271.333L196.143 271.107Z" fill="#2F2F3F"/>
<path d="M75.9495 314.92C80.7068 312.571 85.6069 310.433 90.507 308.295L105.237 302.109C115.18 298.046 125.182 294.435 135.155 290.598C145.172 287.1 155.174 283.489 165.334 280.203L180.596 275.443C185.811 273.955 190.898 272.369 196.143 271.107L196.173 271.333L136.106 293.466L75.9791 315.146L75.9495 314.92Z" fill="#404F59"/>
<path d="M28.254 120.184C30.6338 127.815 32.4477 135.52 34.6011 143.181L40.2987 166.493C44.0397 181.888 47.1313 197.598 50.3212 213.181C53.2848 228.793 56.2484 244.405 58.5478 260.219L62.0952 283.812C63.0186 291.748 64.1683 299.655 64.8653 307.622L64.4126 307.681L45.8241 213.999L27.8014 120.243L28.254 120.184Z" fill="#ACECC8"/>
<path d="M34.4096 107.408C33.1997 108.717 31.4482 109.407 30.9712 110.16C30.2302 110.948 29.7532 111.701 29.5402 112.419C29.3435 112.675 29.2747 113.029 29.3192 113.369C29.1224 113.625 29.3837 114.742 29.2314 115.337C29.0992 116.966 28.839 118.496 28.141 120.199L27.8015 120.244L26.8845 115.875C26.5788 114.418 26.1303 112.75 26.7448 111.289C27.3593 109.827 28.5841 108.631 29.996 107.985C31.408 107.34 32.9088 107.374 34.3652 107.068L34.4096 107.408Z" fill="#2F2F3F"/>
<path d="M81.097 291.8L48.3664 124.344L49.0454 124.255L157.729 102.438L158.035 103.894L50.1284 125.495L82.5534 291.495L81.097 291.8Z" fill="black"/>
<path d="M158.059 103.2L166.036 141.293L173.56 179.444L181.198 217.581C183.776 230.251 186.143 243.063 188.495 255.763L188.644 256.894L187.753 257.126L134.907 274.63C126.076 277.512 117.259 280.508 108.413 283.277L81.8893 291.697L81.8744 291.584L187.251 255.926L187.152 256.054L157.833 103.23L158.059 103.2Z" fill="#ACECC8"/>
<path d="M18.5224 25.574C19.9301 26.656 20.6197 28.4075 21.0682 30.0754C21.6446 31.8417 21.8667 33.5392 21.5378 35.4239L21.4542 35.6651L21.2279 35.6947C17.946 36.1241 14.7085 36.893 11.5007 37.8883C14.5065 36.2288 17.744 35.4599 21.1243 34.9025L20.8292 35.2864C21.1877 33.628 20.9656 31.9305 20.5172 30.2626C20.3331 29.4426 20.1114 28.6275 19.8519 27.8173C19.5071 26.9416 19.1771 26.179 18.5224 25.574Z" fill="#9CAFBA"/>
<path d="M22.9805 99.2343C26.1292 97.7863 29.6226 97.2141 33.0473 96.9962L33.2736 96.9666L33.4164 97.1781C34.5249 100.371 35.0971 103.865 34.38 107.181C34.8707 103.894 34.0722 100.43 32.767 97.4933L33.023 97.6901C29.6966 97.78 26.272 97.9978 22.9805 99.2343Z" fill="#2F2F3F"/>
<path d="M144.836 14.4568C146.195 16.9264 147.033 19.8096 147.29 22.6536L146.906 22.3585C149.705 21.762 152.594 21.8445 155.261 22.8767C153.854 22.6772 152.461 22.5908 151.083 22.6176C149.711 22.6822 148.338 22.7467 146.995 23.0375L146.655 23.082L146.611 22.7424C146.354 19.8984 145.659 17.2268 144.836 14.4568Z" fill="#9CAFBA"/>
<path d="M165.788 76.0597C162.816 76.2184 159.79 76.8445 157.02 77.6674L157.315 77.2835C157.7 80.2258 157.897 83.1929 157.905 86.1847C157.633 83.2275 157.248 80.2851 156.523 77.3871L156.479 77.0476L156.818 77.0032C159.731 76.3918 162.787 75.992 165.788 76.0597Z" fill="#2F2F3F"/>
<path d="M29.3243 77.34C34.2149 76.0094 39.519 75.2003 44.6656 74.0665L60.0809 71.3589C70.4332 69.5439 80.8447 68.1816 91.1283 66.721C101.569 65.585 111.966 64.1096 122.437 63.1999L138.03 61.8503C143.295 61.6219 148.53 61.1671 153.81 61.0518L153.855 61.3913L91.5133 69.6634L60.377 73.6222C49.9655 74.9845 39.7803 76.3172 29.1276 77.5959L29.3243 77.34Z" fill="black"/>
<path d="M29.3244 77.3399L153.825 61.1649L153.84 61.278L138.311 64.0005L122.852 66.3686C112.455 67.8441 102.043 69.2064 91.6466 70.6818C81.3334 71.9161 70.9219 73.2784 60.4807 74.4144L44.9322 76.1035L29.226 77.4679L29.3244 77.3399Z" fill="black"/>
<path d="M11.0637 28.3917L0.130756 30.1675L0.411037 29.6704C5.75437 52.9134 10.6598 76.3288 15.6637 99.6162L29.8978 169.695L43.4677 239.976L50.0263 275.147C52.1321 286.842 54.1396 298.666 56.1322 310.376L55.7483 310.081L64.6241 307.538L64.6537 307.765L55.9207 310.519L55.7092 310.662L55.6795 310.435L-0.0268425 29.8428L-0.0564575 29.6165L0.0567184 29.6016L11.0489 28.2785L11.0637 28.3917Z" fill="#ACECC8"/>
<path d="M0.199493 29.8131C-9.6705 44.1115 -19.2845 58.6067 -29.3957 72.8216L-29.1059 71.5175C-25.5659 88.8959 -21.7995 106.245 -18.4858 123.652L-8.31845 175.847L1.28309 228.115C4.4836 245.538 7.3446 263.005 10.3188 280.457L9.59004 279.286C17.3864 284.328 25.1221 289.494 32.7972 294.782L55.8911 310.292L55.8075 310.534L8.65085 280.906L8.52287 280.807L-30.9018 71.8676L-30.9166 71.7545L-30.8034 71.7397L-0.0416488 29.7295L0.199493 29.8131Z" fill="black"/>
<path d="M82.868 82.7653C80.9442 83.017 79.0689 81.8811 78.704 79.9721C78.2112 77.9646 79.4603 76.0746 81.5809 75.5669L84.6512 75.2803L84.6269 75.9741L81.6697 76.2459C80.115 76.6796 79.0478 78.2005 79.3683 79.7701C79.8019 81.3248 81.436 82.3772 82.9907 81.9435L85.8443 80.8795L86.0463 81.5437L83.2076 82.7209C83.1321 82.7308 83.0189 82.7456 82.868 82.7653Z" fill="#6D482A"/>
<path d="M110.333 78.0206C108.409 78.2724 106.76 77.1068 106.312 75.4389C106.194 74.5336 106.301 73.5986 106.778 72.8456C107.354 71.9645 108.087 71.4082 109.105 71.2749L111.949 71.0179L112.038 71.6969L109.194 71.9539C108.53 72.156 107.895 72.5843 107.404 73.2242C107.025 73.8493 106.887 74.5579 107.089 75.2221C107.395 76.6785 108.901 77.6325 110.456 77.1989L113.083 76.1645L113.3 76.9418L110.673 77.9762C110.522 77.996 110.409 78.0108 110.333 78.0206Z" fill="#6D482A"/>
<path d="M92.1036 81.2117C90.1797 81.4634 88.4177 80.3127 87.9544 78.5316C87.708 77.5279 87.929 76.5781 88.406 75.825C88.9814 74.944 89.8275 74.3729 90.8312 74.1264L93.7884 73.8546L93.8772 74.5336L90.9201 74.8054C90.1427 75.0223 89.5229 75.5638 89.0311 76.2037C88.6524 76.8287 88.515 77.5374 88.7318 78.3147C89.0523 79.8843 90.6715 80.8235 92.2263 80.3899L94.9667 79.3407L95.2966 80.1032L92.4431 81.1672C92.3676 81.1771 92.2545 81.1919 92.1036 81.2117Z" fill="#6D482A"/>
<path d="M118.905 76.669C117.094 76.9059 115.445 75.7404 114.996 74.0725C114.646 72.2766 115.797 70.5145 117.691 70.0364L120.422 69.7942L120.526 70.5864L117.795 70.8286C116.339 71.1343 115.483 72.5124 115.789 73.9688C116.08 75.312 117.571 76.1529 119.027 75.8472L121.541 74.8276L121.758 75.605L119.229 76.5114C119.088 76.6066 118.98 76.6591 118.905 76.669Z" fill="#6D482A"/>
<path d="M101.339 79.658C99.5282 79.8949 97.7662 78.7442 97.3029 76.9631C96.938 75.054 98.0739 73.1788 100.081 72.6859L103.039 72.4141L103.142 73.2063L100.185 73.4781C98.7286 73.7838 97.6615 75.3047 98.0951 76.8594C98.4008 78.3158 99.9069 79.2698 101.59 78.9346L104.217 77.9002L104.419 78.5644L101.792 79.5988C101.641 79.6185 101.49 79.6382 101.339 79.658Z" fill="#6D482A"/>
<path d="M127.235 75.2337C126.442 75.3374 125.621 75.2147 124.996 74.8361C124.242 74.3591 123.686 73.6261 123.455 72.7356C122.991 70.9545 124.24 69.0645 126.036 68.7144L128.88 68.4574L128.856 69.1512L126.125 69.3934C124.797 69.7974 123.828 71.1903 124.119 72.5336C124.321 73.1978 124.749 73.8324 125.374 74.211C125.984 74.4765 126.693 74.614 127.372 74.5251L129.886 73.5055L130.201 74.1549L127.574 75.1893C127.499 75.1992 127.385 75.214 127.235 75.2337Z" fill="#6D482A"/>
<path d="M141.872 72.7428C141.976 73.535 141.514 74.4012 140.722 74.5049C139.944 74.7217 139.176 74.1315 139.058 73.2262C138.841 72.4488 139.417 71.5678 140.209 71.4641C140.986 71.2473 141.641 71.8523 141.872 72.7428Z" fill="black"/>
<path d="M146.935 71.8503C147.039 72.6424 146.577 73.5087 145.785 73.6123C145.106 73.7012 144.353 73.2242 144.234 72.3188C144.017 71.5414 144.494 70.7884 145.272 70.5716C146.064 70.4679 146.719 71.0729 146.935 71.8503Z" fill="black"/>
<path fill-rule="evenodd" clip-rule="evenodd" d="M42.5715 91.4912L40.3864 78.3097L47.8407 77.2192L49.8979 90.3024L42.5715 91.4912ZM41.1542 78.8999L43.1469 90.6102L49.0169 89.7271L47.1374 78.0019L41.1542 78.8999Z" fill="#6D482A"/>
<path fill-rule="evenodd" clip-rule="evenodd" d="M52.3727 89.8634L50.2172 76.9082L57.4304 75.7342L59.5859 88.6894L52.3727 89.8634ZM51.0982 77.4836L52.9629 89.0956L58.7049 88.1141L56.855 76.6152L51.0982 77.4836Z" fill="#6D482A"/>
<path d="M34.38 107.181C35.8173 108.49 36.5218 110.354 37.0982 112.121C37.3675 113.006 37.5286 113.944 37.5815 114.935C37.7 115.841 37.8333 116.859 37.499 117.824L37.5287 118.05L37.1891 118.094C34.1336 118.494 31.0093 119.248 28.0278 120.214C30.8221 118.697 33.9316 117.83 37.1003 117.415L36.7904 117.686C37.1341 115.915 36.8972 114.104 36.434 112.323C36.2401 111.427 36.0084 110.537 35.7391 109.651C35.3943 108.775 35.0495 107.9 34.38 107.181Z" fill="#9CAFBA"/>
<path d="M37.3266 117.386C39.456 118.412 41.5576 119.518 43.6313 120.705C45.6345 121.939 47.5393 123.301 49.2474 124.919C47.5541 123.414 45.4378 122.195 43.4494 121.074C41.3101 119.972 39.1856 118.984 37.0759 118.109L37.3266 117.386Z" fill="#9CAFBA"/>
<path d="M158.825 86.1792C159.521 87.3927 160.075 88.7013 160.489 90.1052C160.908 91.5468 161.199 92.89 161.392 94.3612L160.894 94.0809C163.384 93.7552 165.805 93.7837 168.187 94.3929C165.766 94.3644 163.345 94.3358 161.096 94.7451L160.644 94.8044L160.599 94.4649C160.342 91.6208 159.647 88.9492 158.825 86.1792Z" fill="#9CAFBA"/>
<path d="M161.406 94.4744C160.532 97.4665 159.544 100.473 157.946 103.215C159.303 100.39 160.049 97.2994 160.585 94.3517L161.406 94.4744Z" fill="#9CAFBA"/>
<path d="M74.307 305.005C77.3414 300.925 80.0902 296.421 81.8745 291.583C80.3314 296.505 77.8237 301.092 74.932 305.384L74.307 305.005Z" fill="#9CAFBA"/>
<path d="M201.69 260.712C199.116 261.279 196.445 261.974 194.029 262.866L194.196 262.383C194.771 263.843 195.227 265.28 195.566 266.693C195.914 268.182 196.112 269.691 196.158 271.22C195.434 268.322 194.596 265.439 193.547 262.699L193.374 262.261L193.714 262.216C196.356 261.295 199.042 260.713 201.69 260.712Z" fill="#9CAFBA"/>
<path d="M193.562 262.812C192.705 261.543 191.74 260.326 190.667 259.162C189.599 258.035 188.644 256.894 187.266 256.039C188.629 256.781 189.81 257.893 190.977 258.891C192.116 259.97 193.184 261.096 194.182 262.27L193.562 262.812Z" fill="#9CAFBA"/>
<path d="M225.739 144.531C225.926 142.435 225.418 140.314 225.053 138.405C224.703 136.609 224.51 135.138 225.041 133.917L227.156 129.842L224.798 128.539L211.493 153.532C210.646 151.455 208.908 149.611 206.565 148.421C201.978 145.913 196.689 146.836 194.742 150.428C192.908 154.006 195.045 158.907 199.632 161.414C204.333 163.907 209.622 162.985 211.441 159.294C211.539 159.166 222.814 138.007 222.814 138.007C222.929 138.299 223.006 138.596 223.046 138.898C223.637 140.777 224.341 142.642 224.352 144.482C224.49 146.421 224.048 148.32 223.139 150.166C222.214 151.898 221.049 153.547 219.74 154.985C221.177 153.646 222.598 152.194 223.749 150.431C224.786 148.684 225.568 146.74 225.739 144.531Z" fill="#A8588D"/>
<path d="M208.228 73.1544C207.636 71.2749 206.509 69.6958 205.509 68.2151C204.653 66.9459 204.022 65.6471 203.987 64.5006L204.488 60.4065L202.037 60.1516L199.464 85.3513C198.012 83.9298 196.038 82.9218 193.602 82.7801C189.041 82.2259 184.879 84.7273 184.561 88.4523C184.114 92.079 187.658 95.4138 192.318 95.84C196.88 96.3942 201.027 93.7797 201.36 90.1678C201.346 90.0546 203.615 68.6932 203.615 68.6932C203.796 68.8998 203.976 69.1064 204.157 69.313C205.255 70.6657 206.352 72.0185 207.126 73.5288C207.786 75.0539 208.136 76.8498 207.905 78.6066C207.788 80.3485 207.331 82.1349 206.746 83.8229C207.572 82.2185 208.27 80.5156 208.486 78.6457C208.829 76.8741 208.804 74.9206 208.228 73.1544Z" fill="#8753A4"/>
<path d="M197.897 263.396C197.105 263.499 196.613 264.139 196.717 264.931C196.806 265.611 197.445 266.102 198.238 265.999C198.917 265.91 199.522 265.255 199.433 264.576C199.329 263.784 198.576 263.307 197.897 263.396Z" fill="#8753A4"/>
<path d="M163.358 89.1546C162.566 89.2582 162.074 89.8981 162.177 90.6903C162.266 91.3693 162.906 91.8611 163.698 91.7575C164.377 91.6686 164.982 91.0139 164.894 90.3349C164.79 89.5427 164.037 89.0657 163.358 89.1546Z" fill="#8753A4"/>
<path d="M162.114 79.6484C162.01 78.8562 161.37 78.3644 160.578 78.4681C159.899 78.5569 159.294 79.2116 159.398 80.0038C159.487 80.6828 160.255 81.273 160.934 81.1841C161.726 81.0805 162.203 80.3274 162.114 79.6484Z" fill="#8753A4"/>
<path d="M149.822 17.3726C149.143 17.4615 148.538 18.1161 148.641 18.9083C148.73 19.5873 149.483 20.0643 150.162 19.9755C150.954 19.8718 151.446 19.232 151.357 18.5529C151.254 17.7608 150.614 17.269 149.822 17.3726Z" fill="#8753A4"/>
<path d="M32.9501 112.088C31.9315 112.221 31.3414 112.989 31.4746 114.008C31.5931 114.913 32.3758 115.616 33.3943 115.483C34.2996 115.365 34.9882 114.469 34.8697 113.563C34.7364 112.545 33.8554 111.969 32.9501 112.088Z" fill="#8753A4"/>
<path d="M32.1779 100.909C32.0594 100.003 31.1636 99.3149 30.2582 99.4334C29.3529 99.5519 28.6643 100.448 28.7828 101.353C28.9012 102.258 29.7971 102.947 30.7024 102.828C31.6078 102.71 32.2963 101.814 32.1779 100.909Z" fill="#8753A4"/>
<path d="M16.9644 30.3821C15.9459 30.5154 15.3705 31.3964 15.489 32.3018C15.6223 33.3203 16.4049 34.0236 17.4234 33.8904C18.3288 33.7719 19.0173 32.8761 18.8841 31.8576C18.7656 30.9522 17.8698 30.2637 16.9644 30.3821Z" fill="#8753A4"/>
<path d="M129.699 257.7C122.427 258.422 114.957 256.752 108.524 253.334C101.963 249.819 96.3568 244.797 91.7094 239.189C82.4983 227.733 76.7403 213.638 74.5055 199.196C72.4821 184.612 73.8391 169.471 79.5366 155.834C82.4568 149.121 86.4547 142.727 91.7768 137.657C97.2269 132.685 104.031 129.262 111.259 128.201L111.274 128.314C104.075 129.602 97.5273 133.221 92.3183 138.276C87.1094 143.332 83.2098 149.598 80.516 156.281C75.0152 169.662 73.8698 184.661 75.9619 198.891C78.0688 213.234 83.5707 227.132 92.5407 238.505C97.0749 244.128 102.568 249.164 108.888 252.596C115.109 256.156 122.382 258.082 129.685 257.587L129.699 257.7Z" fill="#9CAEBA"/>
<path d="M117.328 132.356C123.513 132.123 129.738 133.956 135.206 137.039C140.689 140.235 145.4 144.568 149.378 149.458C157.22 159.251 162.131 171.271 164.537 183.502C166.732 195.877 166.58 208.789 162.968 220.772C161.12 226.884 158.534 232.633 154.826 237.722C151.118 242.811 146.386 247.114 140.738 249.695L140.61 249.596C146.086 246.578 150.463 242.206 153.817 237.048C157.299 231.988 159.658 226.27 161.309 220.413C164.469 208.489 164.552 195.932 162.289 183.912C160.139 171.877 155.385 160.182 147.897 150.457C144.274 145.636 139.789 141.273 134.533 138.048C129.389 134.807 123.474 132.703 117.357 132.583L117.328 132.356Z" fill="#9CAEBA"/>
<path d="M128.994 253.188C122.386 253.708 115.58 251.836 109.841 248.443C104.102 245.05 99.2188 240.279 95.0834 235.065C87.0092 224.38 82.108 211.554 80.1492 198.343C78.1904 185.132 79.1592 171.422 83.9715 158.937C86.385 152.75 89.8615 146.77 94.5342 142.015C99.2069 137.26 105.302 133.7 111.836 132.615L111.881 132.954C105.534 134.59 99.7928 138.219 95.6024 143.142C91.3972 147.951 88.2306 153.66 86.1566 159.802C81.8657 171.874 80.9657 185.229 83.0916 197.958C84.7648 210.746 89.4936 223.134 96.9724 233.666C100.655 238.94 105.297 243.627 110.697 247.065C116.012 250.743 122.395 252.901 129.078 252.947L128.994 253.188Z" fill="black"/>
<path d="M112.165 179.996C115.732 177.342 121.327 177.876 125.264 180.699C129.414 183.379 132.087 187.979 132.709 192.732C133.444 197.47 132.3 202.8 128.98 206.457C126.029 210.296 120.534 212.281 116.39 210.522L116.414 209.828C120.036 209.354 123.081 207.114 124.974 203.988C126.769 200.991 127.412 197.108 126.839 193.615C126.267 190.121 124.662 186.648 122.043 184.228C119.424 181.808 115.891 180.314 112.141 180.689L112.165 179.996Z" fill="#0D101B"/>
<path d="M172.045 179.297L168.742 200.679C167.004 198.834 164.533 197.546 161.585 197.011C155.833 196.152 150.569 199.028 149.887 203.491C149.205 207.955 153.236 212.377 159.004 213.349C164.756 214.207 170.02 211.332 170.816 206.854L175.105 179.818L172.045 179.297Z" fill="white"/>
<path d="M18.5372 25.6872C17.3124 26.8834 15.433 27.4747 14.7148 28.1442C13.8983 28.9416 13.2933 29.5963 13.141 30.1918C12.9443 30.4477 12.8608 30.6889 12.792 31.0432L12.7085 31.2844L12.7825 31.8502C12.7564 32.2373 12.7303 32.6244 12.7042 33.0115C12.6704 34.5123 12.425 36.1559 11.6138 37.8735L11.2743 37.918L10.3425 33.4356C10.2388 32.6434 10.0368 31.9792 9.93317 31.1871C9.94268 30.3801 10.0654 29.5583 10.4292 28.82C11.1569 27.3435 12.5244 26.3589 13.966 25.94C15.5207 25.5064 17.0216 25.5402 18.4928 25.3477L18.5372 25.6872Z" fill="#2F2F3F"/>
<path d="M29.1128 77.4826L20.9571 35.3848L20.9274 35.1584L21.1538 35.1288L146.921 22.4715L147.147 22.4419L147.176 22.6683L154.165 61.1203L153.825 61.1648C152.204 54.9309 150.794 48.5543 149.384 42.1777C148.615 38.9403 147.861 35.816 147.205 32.5637L145.267 23.0331L147.172 24.3954C136.648 25.7725 126.236 27.1348 115.795 28.2707L84.3582 31.6934L52.8475 34.5502L37.1561 36.0278L21.3071 37.1807L22.9793 35.0051C24.1237 41.9919 25.3961 49.0772 26.3289 56.2068C27.3602 63.2085 28.5194 70.3085 29.3391 77.453L29.1128 77.4826Z" fill="black"/>
<path d="M168.886 95.3375C168.143 94.0535 167.625 92.7399 167.108 91.4263C166.778 90.6637 166.817 90.0831 166.502 89.4337C166.33 88.9958 166.029 88.4596 165.645 88.1645C165.074 87.3184 164.08 86.7578 163.002 86.4384C162.407 86.2861 161.728 86.375 161.034 86.3506C160.325 86.2131 159.533 86.3168 158.81 86.0661L158.795 85.953C160.266 85.7605 161.595 85.3564 162.967 85.2919C164.468 85.3258 165.832 86.0682 166.787 87.2094C167.84 88.2227 168.047 89.807 168.338 91.1502L169.112 95.3079L168.886 95.3375Z" fill="#2F2F3F"/>
<path d="M123.912 194.113C124.873 198.822 122.592 203.379 118.675 204.237C114.646 205.11 110.664 201.947 109.589 197.253C108.628 192.545 111.022 187.972 114.939 187.115C118.855 186.257 122.837 189.419 123.912 194.113Z" fill="#3B5168"/>
<path d="M33.8682 131.421C37.1163 144.809 40.0397 158.354 42.8351 171.801C45.7437 185.233 48.3276 198.823 51.123 212.27C53.5937 225.875 56.1776 239.465 58.6335 252.956L62.1058 273.336C63.2354 280.21 64.3502 286.97 65.3518 293.745C63.6712 287.059 62.2169 280.343 60.6495 273.642L56.2718 253.38C53.4763 239.933 50.9073 226.456 48.097 212.896C45.6263 199.292 42.9441 185.83 40.5865 172.21C38.2438 158.704 35.8862 145.085 33.8682 131.421Z" fill="#ACECC8"/>
<path d="M15.158 41.2081C16.4145 45.5329 17.4299 49.7741 18.4601 54.1284C19.4754 58.3696 20.3924 62.7388 21.3094 67.108C22.0985 71.3788 22.9023 75.7627 23.4798 80.1763C24.1704 84.5751 24.7479 88.9887 25.2122 93.4171C23.8426 89.1072 22.8272 84.866 21.797 80.5116C20.7669 76.1573 19.8647 71.9013 19.0609 67.5173C18.257 63.1333 17.4532 58.7493 16.7773 54.4637C16.0867 50.0649 15.5092 45.6513 15.158 41.2081Z" fill="#B7CDD8"/>
<path d="M38.5186 108.021C44.6097 106.188 50.6468 104.823 56.8118 103.556C62.9917 102.402 69.1176 101.715 75.3271 100.788C87.6805 99.018 100.077 97.2809 112.515 95.5767L112.56 95.9162C100.305 98.4405 88.0355 100.852 75.7512 103.15C69.5714 104.303 63.5343 105.669 57.3248 106.597C51.1005 107.411 44.8614 108.112 38.5631 108.361L38.5186 108.021Z" fill="#ACECC8"/>
<path d="M20.0877 26.9805C24.9095 26.0043 29.7906 25.4808 34.6569 24.844C39.5379 24.3205 44.4634 24.1364 49.3741 23.8392C59.1955 23.2448 69.0218 22.6881 78.8531 22.1691L78.8827 22.3954C69.1304 23.518 59.3732 24.6028 49.6111 25.6499C44.73 26.1735 39.7505 26.825 34.8398 27.1222C29.9144 27.3063 24.9889 27.4903 20.1173 27.2069L20.0877 26.9805Z" fill="#B7CDD8"/>
<path fill-rule="evenodd" clip-rule="evenodd" d="M85.7216 81.7014C84.0241 81.9235 82.39 80.8712 82.0547 79.1884C81.8379 78.4111 81.9458 77.4761 82.4376 76.8362C82.8998 75.97 83.6475 75.5268 84.5381 75.2952C86.3192 74.8319 88.1944 75.9679 88.5297 77.6506C88.7613 78.5411 88.6386 79.3629 88.1616 80.116C87.6846 80.869 86.9517 81.4254 86.0463 81.5438C85.9053 81.639 85.7971 81.6915 85.7216 81.7014ZM84.9664 75.9298C84.891 75.9397 84.8155 75.9495 84.7401 75.9594C84.0759 76.1614 83.4413 76.5898 83.0627 77.2149C82.6692 77.7268 82.6449 78.4206 82.7189 78.9864C83.0098 80.3296 84.5011 81.1705 85.8443 80.8796C86.6217 80.6628 87.1431 80.2493 87.5217 79.6242C87.9152 79.1123 87.9543 78.5316 87.8655 77.8526C87.5894 76.6226 86.3245 75.7521 84.9664 75.9298Z" fill="black"/>
<path fill-rule="evenodd" clip-rule="evenodd" d="M112.96 76.9862C111.263 77.2083 109.87 76.2395 109.436 74.6848C109.101 73.002 110.153 71.368 111.836 71.0327C113.617 70.5694 115.251 71.6218 115.7 73.2897C116.02 74.8593 114.968 76.4933 113.3 76.9418C113.149 76.9615 113.036 76.9763 112.96 76.9862ZM112.265 71.6673C112.189 71.6771 112.114 71.687 112.038 71.6969C110.695 71.9877 109.938 73.2379 110.214 74.4679C110.49 75.698 111.755 76.5684 113.083 76.1644C114.426 75.8736 115.184 74.6234 114.908 73.3933C114.646 72.2765 113.509 71.5044 112.265 71.6673Z" fill="black"/>
<path fill-rule="evenodd" clip-rule="evenodd" d="M94.8438 80.1624C93.1463 80.3845 91.6254 79.3173 91.3049 77.7478C90.8417 75.9667 91.9924 74.2046 93.7883 73.8545C95.5694 73.3913 97.3314 74.542 97.7799 76.2099C97.8835 77.0021 97.7609 77.8239 97.2839 78.5769C96.8069 79.33 96.0739 79.8863 95.1834 80.118C95.1079 80.1278 94.9947 80.1426 94.8438 80.1624ZM94.2166 74.4891C94.1412 74.499 94.028 74.5138 93.8771 74.5335C92.5487 74.9376 91.6783 76.2025 91.9691 77.5457C92.26 78.889 93.7365 79.6166 95.0797 79.3258C95.7439 79.1238 96.2801 78.8234 96.6588 78.1983C97.0374 77.5732 97.1897 76.9778 97.0025 76.4267C96.7265 75.1967 95.4615 74.3262 94.2166 74.4891Z" fill="black"/>
<path fill-rule="evenodd" clip-rule="evenodd" d="M121.418 75.6493C119.834 75.8566 118.441 74.8878 118.022 73.4462C117.687 71.7635 118.754 70.2426 120.422 69.7941C122.105 69.4589 123.724 70.3981 124.045 71.9676C124.493 73.6355 123.426 75.1564 121.758 75.6049C121.683 75.6148 121.569 75.6296 121.418 75.6493ZM120.865 70.5419C120.714 70.5617 120.601 70.5765 120.526 70.5863C119.296 70.8624 118.524 71.9994 118.8 73.2294C119.076 74.4595 120.326 75.2167 121.541 74.8275C122.771 74.5515 123.656 73.3997 123.38 72.1696C123.119 71.0527 121.997 70.3938 120.865 70.5419Z" fill="black"/>
<path fill-rule="evenodd" clip-rule="evenodd" d="M104.079 78.6088C102.382 78.8309 100.876 77.8769 100.555 76.3073C100.338 75.53 100.461 74.7082 100.938 73.9551C101.415 73.2021 102.148 72.6457 103.039 72.4141C104.834 72.064 106.469 73.1164 106.917 74.7843C107.252 76.467 106.2 78.1011 104.419 78.5644C104.343 78.5742 104.23 78.589 104.079 78.6088ZM103.482 73.1619C103.331 73.1816 103.218 73.1964 103.142 73.2063C102.478 73.4083 101.942 73.7087 101.563 74.3337C101.283 74.8308 101.145 75.5395 101.219 76.1053C101.609 77.3206 102.874 78.191 104.202 77.787C105.545 77.4961 106.416 76.2312 106.14 75.0011C105.864 73.7711 104.727 72.999 103.482 73.1619Z" fill="black"/>
<path fill-rule="evenodd" clip-rule="evenodd" d="M129.763 74.3272C128.292 74.5197 126.786 73.5657 126.466 71.9961C126.249 71.2188 126.386 70.5101 126.863 69.7571C127.355 69.1172 127.975 68.5757 128.767 68.472C130.435 68.0236 132.069 69.0759 132.503 70.6307C132.606 71.4229 132.484 72.2447 131.992 72.8845C131.613 73.5096 130.88 74.0659 130.088 74.1696C130.023 74.2549 129.914 74.3074 129.763 74.3272ZM129.195 69.1066C129.12 69.1165 129.045 69.1264 128.969 69.1362C128.305 69.3382 127.769 69.6386 127.488 70.1357C127.208 70.6328 127.071 71.3414 127.145 71.9073C127.406 73.0242 128.656 73.7814 129.999 73.4906C130.55 73.3034 131.087 73.003 131.367 72.5059C131.76 71.994 131.913 71.3985 131.725 70.8475C131.464 69.7306 130.327 68.9585 129.195 69.1066Z" fill="black"/>
</g>
<defs>
<linearGradient id="paint0_linear_23_23" x1="-30.6942" y1="71.844" x2="25.6844" y2="158.794" gradientUnits="userSpaceOnUse">
<stop stop-color="#582E53"/>
<stop offset="1" stop-color="#8753A4"/>
</linearGradient>
</defs>
</svg>
